<?xml version="1.0" encoding="UTF-8"?>
<svg id="Layer_2" data-name="Layer 2" xmlns="http://www.w3.org/2000/svg" viewBox="0 0 617.76 480.45">
  <defs>
    <style>
      .cls-1 {
        fill: #fff200;
      }
    </style>
  </defs>
  <g id="Layer_1-2" data-name="Layer 1">
    <g>
      <path class="cls-1" d="M7.94,453.36l3.12-1.86v-.11l-3.12-1.81-7.94-4.93v-11.66l19.66,13.47,19.22-13.09v12.49l-7.06,4.54-3.78,2.35v.11l3.78,2.35,7.06,4.6v11.39l-19.55-13.42-19.33,12.98v-12.54l7.94-4.87Z"/>
      <path class="cls-1" d="M7.94,415.14l3.12-1.86v-.11l-3.12-1.81-7.94-4.93v-11.66l19.66,13.47,19.22-13.09v12.49l-7.06,4.54-3.78,2.35v.11l3.78,2.35,7.06,4.6v11.39l-19.55-13.42-19.33,12.98v-12.54l7.94-4.87Z"/>
      <path class="cls-1" d="M7.94,376.91l3.12-1.86v-.11l-3.12-1.81-7.94-4.93v-11.66l19.66,13.47,19.22-13.09v12.49l-7.06,4.54-3.78,2.35v.11l3.78,2.35,7.06,4.6v11.39l-19.55-13.42-19.33,12.98v-12.54l7.94-4.87Z"/>
      <path class="cls-1" d="M7.94,338.69l3.12-1.86v-.11l-3.12-1.81-7.94-4.93v-11.66l19.66,13.47,19.22-13.09v12.49l-7.06,4.54-3.78,2.35v.11l3.78,2.35,7.06,4.6v11.39l-19.55-13.42-19.33,12.98v-12.54l7.94-4.87Z"/>
      <path class="cls-1" d="M60.5,382.55l3.12-1.86v-.11l-3.12-1.81-7.94-4.93v-11.66l19.66,13.47,19.22-13.09v12.49l-7.06,4.54-3.78,2.35v.11l3.78,2.35,7.06,4.6v11.39l-19.55-13.42-19.33,12.98v-12.54l7.94-4.87Z"/>
      <path class="cls-1" d="M120.37,401.66l3.12-1.86v-.11l-3.12-1.81-7.94-4.93v-11.66l19.66,13.47,19.22-13.09v12.49l-7.06,4.54-3.78,2.35v.11l3.78,2.35,7.06,4.6v11.39l-19.55-13.42-19.33,12.98v-12.54l7.94-4.87Z"/>
      <path class="cls-1" d="M166.05,353.76l3.12-1.86v-.11l-3.12-1.81-7.94-4.93v-11.66l19.66,13.47,19.22-13.09v12.49l-7.06,4.54-3.78,2.35v.11l3.78,2.35,7.06,4.6v11.39l-19.55-13.42-19.33,12.98v-12.54l7.94-4.87Z"/>
      <path class="cls-1" d="M120.37,309.71l3.12-1.86v-.11l-3.12-1.81-7.94-4.93v-11.66l19.66,13.47,19.22-13.09v12.49l-7.06,4.54-3.78,2.35v.11l3.78,2.35,7.06,4.6v11.39l-19.55-13.42-19.33,12.98v-12.54l7.94-4.87Z"/>
      <path class="cls-1" d="M70.16,250.46l3.12-1.86v-.11l-3.12-1.81-7.94-4.93v-11.66l19.66,13.47,19.22-13.09v12.49l-7.06,4.54-3.78,2.35v.11l3.78,2.35,7.06,4.6v11.39l-19.55-13.42-19.33,12.98v-12.54l7.94-4.87Z"/>
      <path class="cls-1" d="M120.37,238.6l3.12-1.86v-.11l-3.12-1.81-7.94-4.93v-11.66l19.66,13.47,19.22-13.09v12.49l-7.06,4.54-3.78,2.35v.11l3.78,2.35,7.06,4.6v11.39l-19.55-13.42-19.33,12.98v-12.54l7.94-4.87Z"/>
      <path class="cls-1" d="M166.85,257.71l3.12-1.86v-.11l-3.12-1.81-7.94-4.93v-11.66l19.66,13.47,19.22-13.09v12.49l-7.06,4.54-3.78,2.35v.11l3.78,2.35,7.06,4.6v11.39l-19.55-13.42-19.33,12.98v-12.54l7.94-4.87Z"/>
      <path class="cls-1" d="M228.2,241.69l3.12-1.86v-.11l-3.12-1.81-7.94-4.93v-11.66l19.66,13.47,19.22-13.09v12.49l-7.06,4.54-3.78,2.35v.11l3.78,2.35,7.06,4.6v11.39l-19.55-13.42-19.33,12.98v-12.54l7.94-4.87Z"/>
      <path class="cls-1" d="M214.35,190.29l3.12-1.86v-.11l-3.12-1.81-7.94-4.93v-11.66l19.66,13.47,19.22-13.09v12.49l-7.06,4.54-3.78,2.35v.11l3.78,2.35,7.06,4.6v11.39l-19.55-13.42-19.33,12.98v-12.54l7.94-4.87Z"/>
      <path class="cls-1" d="M209.64,298.48l3.12-1.86v-.11l-3.12-1.81-7.94-4.93v-11.66l19.66,13.47,19.22-13.09v12.49l-7.06,4.54-3.78,2.35v.11l3.78,2.35,7.06,4.6v11.39l-19.55-13.42-19.33,12.98v-12.54l7.94-4.87Z"/>
      <path class="cls-1" d="M228.75,359.44l3.12-1.86v-.11l-3.12-1.81-7.94-4.93v-11.66l19.66,13.47,19.22-13.09v12.49l-7.06,4.54-3.78,2.35v.11l3.78,2.35,7.06,4.6v11.39l-19.55-13.42-19.33,12.98v-12.54l7.94-4.87Z"/>
      <path class="cls-1" d="M205.73,406.66l3.12-1.86v-.11l-3.12-1.81-7.94-4.93v-11.66l19.66,13.47,19.22-13.09v12.49l-7.06,4.54-3.78,2.35v.11l3.78,2.35,7.06,4.6v11.39l-19.55-13.42-19.33,12.98v-12.54l7.94-4.87Z"/>
      <path class="cls-1" d="M219.49,133.97l3.12-1.86v-.11l-3.12-1.81-7.94-4.93v-11.66l19.66,13.47,19.22-13.09v12.49l-7.06,4.54-3.78,2.35v.11l3.78,2.35,7.06,4.6v11.39l-19.55-13.42-19.33,12.98v-12.54l7.94-4.87Z"/>
      <path class="cls-1" d="M233.79,77.5l3.12-1.86v-.11l-3.12-1.81-7.94-4.93v-11.66l19.66,13.47,19.22-13.09v12.49l-7.06,4.54-3.78,2.35v.11l3.78,2.35,7.06,4.6v11.39l-19.55-13.42-19.33,12.98v-12.54l7.94-4.87Z"/>
      <path class="cls-1" d="M269.7,122.11l3.12-1.86v-.11l-3.12-1.81-7.94-4.93v-11.66l19.66,13.47,19.22-13.09v12.49l-7.06,4.54-3.78,2.35v.11l3.78,2.35,7.06,4.6v11.39l-19.55-13.42-19.33,12.98v-12.54l7.94-4.87Z"/>
      <path class="cls-1" d="M316.18,141.22l3.12-1.86v-.11l-3.12-1.81-7.94-4.93v-11.66l19.66,13.47,19.22-13.09v12.49l-7.06,4.54-3.78,2.35v.11l3.78,2.35,7.06,4.6v11.39l-19.55-13.42-19.33,12.98v-12.54l7.94-4.87Z"/>
      <path class="cls-1" d="M366.59,114.86l3.12-1.86v-.11l-3.12-1.81-7.94-4.93v-11.66l19.66,13.47,19.22-13.09v12.49l-7.06,4.54-3.78,2.35v.11l3.78,2.35,7.06,4.6v11.39l-19.55-13.42-19.33,12.98v-12.54l7.94-4.87Z"/>
      <path class="cls-1" d="M419.86,86.9l3.12-1.86v-.11l-3.12-1.81-7.94-4.93v-11.66l19.66,13.47,19.22-13.09v12.49l-7.06,4.54-3.78,2.35v.11l3.78,2.35,7.06,4.6v11.39l-19.55-13.42-19.33,12.98v-12.54l7.94-4.87Z"/>
      <path class="cls-1" d="M477.85,61.72l3.12-1.86v-.11l-3.12-1.81-7.94-4.93v-11.66l19.66,13.47,19.22-13.09v12.49l-7.06,4.54-3.78,2.35v.11l3.78,2.35,7.06,4.6v11.39l-19.55-13.42-19.33,12.98v-12.54l7.94-4.87Z"/>
      <path class="cls-1" d="M280.71,376.62l3.12-1.86v-.11l-3.12-1.81-7.94-4.93v-11.66l19.66,13.47,19.22-13.09v12.49l-7.06,4.54-3.78,2.35v.11l3.78,2.35,7.06,4.6v11.39l-19.55-13.42-19.33,12.98v-12.54l7.94-4.87Z"/>
      <path class="cls-1" d="M327.19,395.73l3.12-1.86v-.11l-3.12-1.81-7.94-4.93v-11.66l19.66,13.47,19.22-13.09v12.49l-7.06,4.54-3.78,2.35v.11l3.78,2.35,7.06,4.6v11.39l-19.55-13.42-19.33,12.98v-12.54l7.94-4.87Z"/>
      <path class="cls-1" d="M377.61,369.37l3.12-1.86v-.11l-3.12-1.81-7.94-4.93v-11.66l19.66,13.47,19.22-13.09v12.49l-7.06,4.54-3.78,2.35v.11l3.78,2.35,7.06,4.6v11.39l-19.55-13.42-19.33,12.98v-12.54l7.94-4.87Z"/>
      <path class="cls-1" d="M405.47,412.38l3.12-1.86v-.11l-3.12-1.81-7.94-4.93v-11.66l19.66,13.47,19.22-13.09v12.49l-7.06,4.54-3.78,2.35v.11l3.78,2.35,7.06,4.6v11.39l-19.55-13.42-19.33,12.98v-12.54l7.94-4.87Z"/>
      <path class="cls-1" d="M464.39,414.84l3.12-1.86v-.11l-3.12-1.81-7.94-4.93v-11.66l19.66,13.47,19.22-13.09v12.49l-7.06,4.54-3.78,2.35v.11l3.78,2.35,7.06,4.6v11.39l-19.55-13.42-19.33,12.98v-12.54l7.94-4.87Z"/>
      <path class="cls-1" d="M433.27,326.91l3.12-1.86v-.11l-3.12-1.81-7.94-4.93v-11.66l19.66,13.47,19.22-13.09v12.49l-7.06,4.54-3.78,2.35v.11l3.78,2.35,7.06,4.6v11.39l-19.55-13.42-19.33,12.98v-12.54l7.94-4.87Z"/>
      <path class="cls-1" d="M483.83,326.91l3.12-1.86v-.11l-3.12-1.81-7.94-4.93v-11.66l19.66,13.47,19.22-13.09v12.49l-7.06,4.54-3.78,2.35v.11l3.78,2.35,7.06,4.6v11.39l-19.55-13.42-19.33,12.98v-12.54l7.94-4.87Z"/>
      <path class="cls-1" d="M535.16,326.91l3.12-1.86v-.11l-3.12-1.81-7.94-4.93v-11.66l19.66,13.47,19.22-13.09v12.49l-7.06,4.54-3.78,2.35v.11l3.78,2.35,7.06,4.6v11.39l-19.55-13.42-19.33,12.98v-12.54l7.94-4.87Z"/>
      <path class="cls-1" d="M438.97,177.62l3.12-1.86v-.11l-3.12-1.81-7.94-4.93v-11.66l19.66,13.47,19.22-13.09v12.49l-7.06,4.54-3.78,2.35v.11l3.78,2.35,7.06,4.6v11.39l-19.55-13.42-19.33,12.98v-12.54l7.94-4.87Z"/>
      <path class="cls-1" d="M490.61,177.62l3.12-1.86v-.11l-3.12-1.81-7.94-4.93v-11.66l19.66,13.47,19.22-13.09v12.49l-7.06,4.54-3.78,2.35v.11l3.78,2.35,7.06,4.6v11.39l-19.55-13.42-19.33,12.98v-12.54l7.94-4.87Z"/>
      <path class="cls-1" d="M538.55,177.62l3.12-1.86v-.11l-3.12-1.81-7.94-4.93v-11.66l19.66,13.47,19.22-13.09v12.49l-7.06,4.54-3.78,2.35v.11l3.78,2.35,7.06,4.6v11.39l-19.55-13.42-19.33,12.98v-12.54l7.94-4.87Z"/>
      <path class="cls-1" d="M60.5,326.21l3.12-1.86v-.11l-3.12-1.81-7.94-4.93v-11.66l19.66,13.47,19.22-13.09v12.49l-7.06,4.54-3.78,2.35v.11l3.78,2.35,7.06,4.6v11.39l-19.55-13.42-19.33,12.98v-12.54l7.94-4.87Z"/>
      <path class="cls-1" d="M61.31,162.66l3.12-1.86v-.11l-3.12-1.81-7.94-4.93v-11.66l19.66,13.47,19.22-13.09v12.49l-7.06,4.54-3.78,2.35v.11l3.78,2.35,7.06,4.6v11.39l-19.55-13.42-19.33,12.98v-12.54l7.94-4.87Z"/>
      <path class="cls-1" d="M121.18,181.77l3.12-1.86v-.11l-3.12-1.81-7.94-4.93v-11.66l19.66,13.47,19.22-13.09v12.49l-7.06,4.54-3.78,2.35v.11l3.78,2.35,7.06,4.6v11.39l-19.55-13.42-19.33,12.98v-12.54l7.94-4.87Z"/>
      <path class="cls-1" d="M166.85,133.87l3.12-1.86v-.11l-3.12-1.81-7.94-4.93v-11.66l19.66,13.47,19.22-13.09v12.49l-7.06,4.54-3.78,2.35v.11l3.78,2.35,7.06,4.6v11.39l-19.55-13.42-19.33,12.98v-12.54l7.94-4.87Z"/>
      <path class="cls-1" d="M121.18,89.82l3.12-1.86v-.11l-3.12-1.81-7.94-4.93v-11.66l19.66,13.47,19.22-13.09v12.49l-7.06,4.54-3.78,2.35v.11l3.78,2.35,7.06,4.6v11.39l-19.55-13.42-19.33,12.98v-12.54l7.94-4.87Z"/>
      <path class="cls-1" d="M61.31,106.32l3.12-1.86v-.11l-3.12-1.81-7.94-4.93v-11.66l19.66,13.47,19.22-13.09v12.49l-7.06,4.54-3.78,2.35v.11l3.78,2.35,7.06,4.6v11.39l-19.55-13.42-19.33,12.98v-12.54l7.94-4.87Z"/>
      <path class="cls-1" d="M284.95,269.57l3.12-1.86v-.11l-3.12-1.81-7.94-4.93v-11.66l19.66,13.47,19.22-13.09v12.49l-7.06,4.54-3.78,2.35v.11l3.78,2.35,7.06,4.6v11.39l-19.55-13.42-19.33,12.98v-12.54l7.94-4.87Z"/>
      <path class="cls-1" d="M344.82,288.69l3.12-1.86v-.11l-3.12-1.81-7.94-4.93v-11.66l19.66,13.47,19.22-13.09v12.49l-7.06,4.54-3.78,2.35v.11l3.78,2.35,7.06,4.6v11.39l-19.55-13.42-19.33,12.98v-12.54l7.94-4.87Z"/>
      <path class="cls-1" d="M390.49,240.78l3.12-1.86v-.11l-3.12-1.81-7.94-4.93v-11.66l19.66,13.47,19.22-13.09v12.49l-7.06,4.54-3.78,2.35v.11l3.78,2.35,7.06,4.6v11.39l-19.55-13.42-19.33,12.98v-12.54l7.94-4.87Z"/>
      <path class="cls-1" d="M344.82,196.73l3.12-1.86v-.11l-3.12-1.81-7.94-4.93v-11.66l19.66,13.47,19.22-13.09v12.49l-7.06,4.54-3.78,2.35v.11l3.78,2.35,7.06,4.6v11.39l-19.55-13.42-19.33,12.98v-12.54l7.94-4.87Z"/>
      <path class="cls-1" d="M284.95,213.23l3.12-1.86v-.11l-3.12-1.81-7.94-4.93v-11.66l19.66,13.47,19.22-13.09v12.49l-7.06,4.54-3.78,2.35v.11l3.78,2.35,7.06,4.6v11.39l-19.55-13.42-19.33,12.98v-12.54l7.94-4.87Z"/>
      <path class="cls-1" d="M586.49,412.38l3.12-1.86v-.11l-3.12-1.81-7.94-4.93v-11.66l19.66,13.47,19.22-13.09v12.49l-7.06,4.54-3.78,2.35v.11l3.78,2.35,7.06,4.6v11.39l-19.55-13.42-19.33,12.98v-12.54l7.94-4.87Z"/>
      <path class="cls-1" d="M586.49,374.16l3.12-1.86v-.11l-3.12-1.81-7.94-4.93v-11.66l19.66,13.47,19.22-13.09v12.49l-7.06,4.54-3.78,2.35v.11l3.78,2.35,7.06,4.6v11.39l-19.55-13.42-19.33,12.98v-12.54l7.94-4.87Z"/>
      <path class="cls-1" d="M586.49,335.94l3.12-1.86v-.11l-3.12-1.81-7.94-4.93v-11.66l19.66,13.47,19.22-13.09v12.49l-7.06,4.54-3.78,2.35v.11l3.78,2.35,7.06,4.6v11.39l-19.55-13.42-19.33,12.98v-12.54l7.94-4.87Z"/>
      <path class="cls-1" d="M586.49,297.72l3.12-1.86v-.11l-3.12-1.81-7.94-4.93v-11.66l19.66,13.47,19.22-13.09v12.49l-7.06,4.54-3.78,2.35v.11l3.78,2.35,7.06,4.6v11.39l-19.55-13.42-19.33,12.98v-12.54l7.94-4.87Z"/>
      <path class="cls-1" d="M586.49,259.49l3.12-1.86v-.11l-3.12-1.81-7.94-4.93v-11.66l19.66,13.47,19.22-13.09v12.49l-7.06,4.54-3.78,2.35v.11l3.78,2.35,7.06,4.6v11.39l-19.55-13.42-19.33,12.98v-12.54l7.94-4.87Z"/>
      <path class="cls-1" d="M586.49,221.27l3.12-1.86v-.11l-3.12-1.81-7.94-4.93v-11.66l19.66,13.47,19.22-13.09v12.49l-7.06,4.54-3.78,2.35v.11l3.78,2.35,7.06,4.6v11.39l-19.55-13.42-19.33,12.98v-12.54l7.94-4.87Z"/>
      <path class="cls-1" d="M586.49,183.05l3.12-1.86v-.11l-3.12-1.81-7.94-4.93v-11.66l19.66,13.47,19.22-13.09v12.49l-7.06,4.54-3.78,2.35v.11l3.78,2.35,7.06,4.6v11.39l-19.55-13.42-19.33,12.98v-12.54l7.94-4.87Z"/>
      <path class="cls-1" d="M586.49,144.83l3.12-1.86v-.11l-3.12-1.81-7.94-4.93v-11.66l19.66,13.47,19.22-13.09v12.49l-7.06,4.54-3.78,2.35v.11l3.78,2.35,7.06,4.6v11.39l-19.55-13.42-19.33,12.98v-12.54l7.94-4.87Z"/>
      <path class="cls-1" d="M586.82,106.01l3.12-1.86v-.11l-3.12-1.81-7.94-4.93v-11.66l19.66,13.47,19.22-13.09v12.49l-7.06,4.54-3.78,2.35v.11l3.78,2.35,7.06,4.6v11.39l-19.55-13.42-19.33,12.98v-12.54l7.94-4.87Z"/>
      <path class="cls-1" d="M586.82,67.79l3.12-1.86v-.11l-3.12-1.81-7.94-4.93v-11.66l19.66,13.47,19.22-13.09v12.49l-7.06,4.54-3.78,2.35v.11l3.78,2.35,7.06,4.6v11.39l-19.55-13.42-19.33,12.98v-12.54l7.94-4.87Z"/>
      <path class="cls-1" d="M7.94,300.47l3.12-1.86v-.11l-3.12-1.81-7.94-4.93v-11.66l19.66,13.47,19.22-13.09v12.49l-7.06,4.54-3.78,2.35v.11l3.78,2.35,7.06,4.6v11.39l-19.55-13.42-19.33,12.98v-12.54l7.94-4.87Z"/>
      <path class="cls-1" d="M7.94,262.25l3.12-1.86v-.11l-3.12-1.81-7.94-4.93v-11.66l19.66,13.47,19.22-13.09v12.49l-7.06,4.54-3.78,2.35v.11l3.78,2.35,7.06,4.6v11.39l-19.55-13.42-19.33,12.98v-12.54l7.94-4.87Z"/>
      <path class="cls-1" d="M7.94,223.6l3.12-1.86v-.11l-3.12-1.81-7.94-4.93v-11.66l19.66,13.47,19.22-13.09v12.49l-7.06,4.54-3.78,2.35v.11l3.78,2.35,7.06,4.6v11.39l-19.55-13.42L0,241.01v-12.54l7.94-4.87Z"/>
      <path class="cls-1" d="M7.94,185.37l3.12-1.86v-.11l-3.12-1.81-7.94-4.93v-11.66l19.66,13.47,19.22-13.09v12.49l-7.06,4.54-3.78,2.35v.11l3.78,2.35,7.06,4.6v11.39l-19.55-13.42L0,202.79v-12.54l7.94-4.87Z"/>
      <path class="cls-1" d="M7.94,147.15l3.12-1.86v-.11l-3.12-1.81-7.94-4.93v-11.66l19.66,13.47,19.22-13.09v12.49l-7.06,4.54-3.78,2.35v.11l3.78,2.35,7.06,4.6v11.39l-19.55-13.42L0,164.57v-12.54l7.94-4.87Z"/>
      <path class="cls-1" d="M7.94,108.93l3.12-1.86v-.11l-3.12-1.81-7.94-4.93v-11.66l19.66,13.47,19.22-13.09v12.49l-7.06,4.54-3.78,2.35v.11l3.78,2.35,7.06,4.6v11.39l-19.55-13.42L0,126.34v-12.54l7.94-4.87Z"/>
      <path class="cls-1" d="M7.94,70.71l3.12-1.86v-.11l-3.12-1.81-7.94-4.93v-11.66l19.66,13.47,19.22-13.09v12.49l-7.06,4.54-3.78,2.35v.11l3.78,2.35,7.06,4.6v11.39l-19.55-13.42L0,88.12v-12.54l7.94-4.87Z"/>
      <path class="cls-1" d="M7.94,32.49l3.12-1.86v-.11l-3.12-1.81L0,23.78v-11.66l19.66,13.47,19.22-13.09v12.49l-7.06,4.54-3.78,2.35v.11l3.78,2.35,7.06,4.6v11.39l-19.55-13.42L0,49.9v-12.54l7.94-4.87Z"/>
      <path class="cls-1" d="M61.29,449.51l1.86,3.12h.11l1.81-3.12,4.93-7.94h11.66l-13.47,19.66,13.09,19.22h-12.49l-4.54-7.06-2.35-3.78h-.11l-2.35,3.78-4.6,7.06h-11.39l13.42-19.55-12.98-19.33h12.54l4.87,7.94Z"/>
      <path class="cls-1" d="M99.51,449.51l1.86,3.12h.11l1.81-3.12,4.93-7.94h11.66l-13.47,19.66,13.09,19.22h-12.49l-4.54-7.06-2.35-3.78h-.11l-2.35,3.78-4.6,7.06h-11.39l13.42-19.55-12.98-19.33h12.54l4.87,7.94Z"/>
      <path class="cls-1" d="M137.74,449.51l1.86,3.12h.11l1.81-3.12,4.93-7.94h11.66l-13.47,19.66,13.09,19.22h-12.49l-4.54-7.06-2.35-3.78h-.11l-2.35,3.78-4.6,7.06h-11.39l13.42-19.55-12.98-19.33h12.54l4.87,7.94Z"/>
      <path class="cls-1" d="M175.96,449.51l1.86,3.12h.11l1.81-3.12,4.93-7.94h11.66l-13.47,19.66,13.09,19.22h-12.49l-4.54-7.06-2.35-3.78h-.11l-2.35,3.78-4.6,7.06h-11.39l13.42-19.55-12.98-19.33h12.54l4.87,7.94Z"/>
      <path class="cls-1" d="M214.18,449.51l1.86,3.12h.11l1.81-3.12,4.93-7.94h11.66l-13.47,19.66,13.09,19.22h-12.49l-4.54-7.06-2.35-3.78h-.11l-2.35,3.78-4.6,7.06h-11.39l13.42-19.55-12.98-19.33h12.54l4.87,7.94Z"/>
      <path class="cls-1" d="M252.4,449.51l1.86,3.12h.11l1.81-3.12,4.93-7.94h11.66l-13.47,19.66,13.09,19.22h-12.49l-4.54-7.06-2.35-3.78h-.11l-2.35,3.78-4.6,7.06h-11.39l13.42-19.55-12.98-19.33h12.54l4.87,7.94Z"/>
      <path class="cls-1" d="M290.62,449.51l1.86,3.12h.11l1.81-3.12,4.93-7.94h11.66l-13.47,19.66,13.09,19.22h-12.49l-4.54-7.06-2.35-3.78h-.11l-2.35,3.78-4.6,7.06h-11.39l13.42-19.55-12.98-19.33h12.54l4.87,7.94Z"/>
      <path class="cls-1" d="M328.85,449.51l1.86,3.12h.11l1.81-3.12,4.93-7.94h11.66l-13.47,19.66,13.09,19.22h-12.49l-4.54-7.06-2.35-3.78h-.11l-2.35,3.78-4.6,7.06h-11.39l13.42-19.55-12.98-19.33h12.54l4.87,7.94Z"/>
      <path class="cls-1" d="M367.07,449.51l1.86,3.12h.11l1.81-3.12,4.93-7.94h11.66l-13.47,19.66,13.09,19.22h-12.49l-4.54-7.06-2.35-3.78h-.11l-2.35,3.78-4.6,7.06h-11.39l13.42-19.55-12.98-19.33h12.54l4.87,7.94Z"/>
      <path class="cls-1" d="M405.29,449.51l1.86,3.12h.11l1.81-3.12,4.93-7.94h11.66l-13.47,19.66,13.09,19.22h-12.49l-4.54-7.06-2.35-3.78h-.11l-2.35,3.78-4.6,7.06h-11.39l13.42-19.55-12.98-19.33h12.54l4.87,7.94Z"/>
      <path class="cls-1" d="M443.51,449.51l1.86,3.12h.11l1.81-3.12,4.93-7.94h11.66l-13.47,19.66,13.09,19.22h-12.49l-4.54-7.06-2.35-3.78h-.11l-2.35,3.78-4.6,7.06h-11.39l13.42-19.55-12.98-19.33h12.54l4.87,7.94Z"/>
      <path class="cls-1" d="M481.74,449.51l1.86,3.12h.11l1.81-3.12,4.93-7.94h11.66l-13.47,19.66,13.09,19.22h-12.49l-4.54-7.06-2.35-3.78h-.11l-2.35,3.78-4.6,7.06h-11.39l13.42-19.55-12.98-19.33h12.54l4.87,7.94Z"/>
      <path class="cls-1" d="M66.99,7.94l1.86,3.12h.11l1.81-3.12,4.93-7.94h11.66l-13.47,19.66,13.09,19.22h-12.49l-4.54-7.06-2.35-3.78h-.11l-2.35,3.78-4.6,7.06h-11.39l13.42-19.55L49.57,0h12.54l4.87,7.94Z"/>
      <path class="cls-1" d="M105.21,7.94l1.86,3.12h.11l1.81-3.12,4.93-7.94h11.66l-13.47,19.66,13.09,19.22h-12.49l-4.54-7.06-2.35-3.78h-.11l-2.35,3.78-4.6,7.06h-11.39l13.42-19.55L87.8,0h12.54l4.87,7.94Z"/>
      <path class="cls-1" d="M143.43,7.94l1.86,3.12h.11l1.81-3.12,4.93-7.94h11.66l-13.47,19.66,13.09,19.22h-12.49l-4.54-7.06-2.35-3.78h-.11l-2.35,3.78-4.6,7.06h-11.39l13.42-19.55L126.02,0h12.54l4.87,7.94Z"/>
      <path class="cls-1" d="M181.65,7.94l1.86,3.12h.11l1.81-3.12,4.93-7.94h11.66l-13.47,19.66,13.09,19.22h-12.49l-4.54-7.06-2.35-3.78h-.11l-2.35,3.78-4.6,7.06h-11.39l13.42-19.55L164.24,0h12.54l4.87,7.94Z"/>
      <path class="cls-1" d="M219.88,7.94l1.86,3.12h.11l1.81-3.12,4.93-7.94h11.66l-13.47,19.66,13.09,19.22h-12.49l-4.54-7.06-2.35-3.78h-.11l-2.35,3.78-4.6,7.06h-11.39l13.42-19.55L202.46,0h12.54l4.87,7.94Z"/>
      <path class="cls-1" d="M258.1,7.94l1.86,3.12h.11l1.81-3.12,4.93-7.94h11.66l-13.47,19.66,13.09,19.22h-12.49l-4.54-7.06-2.35-3.78h-.11l-2.35,3.78-4.6,7.06h-11.39l13.42-19.55L240.68,0h12.54l4.87,7.94Z"/>
      <path class="cls-1" d="M296.32,7.94l1.86,3.12h.11l1.81-3.12,4.93-7.94h11.66l-13.47,19.66,13.09,19.22h-12.49l-4.54-7.06-2.35-3.78h-.11l-2.35,3.78-4.6,7.06h-11.39l13.42-19.55-12.98-19.33h12.54l4.87,7.94Z"/>
      <path class="cls-1" d="M334.54,7.94l1.86,3.12h.11l1.81-3.12,4.93-7.94h11.66l-13.47,19.66,13.09,19.22h-12.49l-4.54-7.06-2.35-3.78h-.11l-2.35,3.78-4.6,7.06h-11.39l13.42-19.55-12.98-19.33h12.54l4.87,7.94Z"/>
      <path class="cls-1" d="M372.76,7.94l1.86,3.12h.11l1.81-3.12,4.93-7.94h11.66l-13.47,19.66,13.09,19.22h-12.49l-4.54-7.06-2.35-3.78h-.11l-2.35,3.78-4.6,7.06h-11.39l13.42-19.55-12.98-19.33h12.54l4.87,7.94Z"/>
      <path class="cls-1" d="M410.99,7.94l1.86,3.12h.11l1.81-3.12,4.93-7.94h11.66l-13.47,19.66,13.09,19.22h-12.49l-4.54-7.06-2.35-3.78h-.11l-2.35,3.78-4.6,7.06h-11.39l13.42-19.55-12.98-19.33h12.54l4.87,7.94Z"/>
      <path class="cls-1" d="M449.21,7.94l1.86,3.12h.11l1.81-3.12,4.93-7.94h11.66l-13.47,19.66,13.09,19.22h-12.49l-4.54-7.06-2.35-3.78h-.11l-2.35,3.78-4.6,7.06h-11.39l13.42-19.55-12.98-19.33h12.54l4.87,7.94Z"/>
      <path class="cls-1" d="M487.43,7.94l1.86,3.12h.11l1.81-3.12,4.93-7.94h11.66l-13.47,19.66,13.09,19.22h-12.49l-4.54-7.06-2.35-3.78h-.11l-2.35,3.78-4.6,7.06h-11.39l13.42-19.55-12.98-19.33h12.54l4.87,7.94Z"/>
      <path class="cls-1" d="M519.96,7.94l1.86,3.12h.11l1.81-3.12,4.93-7.94h11.66l-13.47,19.66,13.09,19.22h-12.49l-4.54-7.06-2.35-3.78h-.11l-2.35,3.78-4.6,7.06h-11.39l13.42-19.55-12.98-19.33h12.54l4.87,7.94Z"/>
      <path class="cls-1" d="M558.18,7.94l1.86,3.12h.11l1.81-3.12,4.93-7.94h11.66l-13.47,19.66,13.09,19.22h-12.49l-4.54-7.06-2.35-3.78h-.11l-2.35,3.78-4.6,7.06h-11.39l13.42-19.55-12.98-19.33h12.54l4.87,7.94Z"/>
      <path class="cls-1" d="M596.4,7.94l1.86,3.12h.11l1.81-3.12,4.93-7.94h11.66l-13.47,19.66,13.09,19.22h-12.49l-4.54-7.06-2.35-3.78h-.11l-2.35,3.78-4.6,7.06h-11.39l13.42-19.55-12.98-19.33h12.54l4.87,7.94Z"/>
      <path class="cls-1" d="M519.96,449.51l1.86,3.12h.11l1.81-3.12,4.93-7.94h11.66l-13.47,19.66,13.09,19.22h-12.49l-4.54-7.06-2.35-3.78h-.11l-2.35,3.78-4.6,7.06h-11.39l13.42-19.55-12.98-19.33h12.54l4.87,7.94Z"/>
      <path class="cls-1" d="M558.18,449.51l1.86,3.12h.11l1.81-3.12,4.93-7.94h11.66l-13.47,19.66,13.09,19.22h-12.49l-4.54-7.06-2.35-3.78h-.11l-2.35,3.78-4.6,7.06h-11.39l13.42-19.55-12.98-19.33h12.54l4.87,7.94Z"/>
      <path class="cls-1" d="M596.4,449.51l1.86,3.12h.11l1.81-3.12,4.93-7.94h11.66l-13.47,19.66,13.09,19.22h-12.49l-4.54-7.06-2.35-3.78h-.11l-2.35,3.78-4.6,7.06h-11.39l13.42-19.55-12.98-19.33h12.54l4.87,7.94Z"/>
    </g>
  </g>
</svg>