<?xml version="1.0" encoding="UTF-8"?>
<svg id="Layer_2" xmlns="http://www.w3.org/2000/svg" version="1.1" viewBox="0 0 348.2 447.7">
  <!-- Generator: Adobe Illustrator 29.4.0, SVG Export Plug-In . SVG Version: 2.1.0 Build 152)  -->
  <g id="Layer_1-2">
    <g>
      <path d="M19.6,5.8l1.4,2.3h0l1.3-2.3,3.6-5.8h8.5l-9.8,14.2,9.5,13.9h-9l-3.3-5.1-1.7-2.7h0l-1.7,2.7-3.3,5.1H6.7l9.7-14.2L7,0h9.1s3.5,5.8,3.5,5.8Z"/>
      <path d="M47.3,5.8l1.3,2.3h0l1.3-2.3,3.6-5.8h8.5l-9.8,14.2,9.5,13.9h-9l-3.3-5.1-1.7-2.7h0l-1.7,2.7-3.3,5.1h-8.2l9.7-14.2L34.7,0h9.1s3.5,5.8,3.5,5.8Z"/>
      <path d="M75,5.8l1.3,2.3h0l1.3-2.3,3.6-5.8h8.4l-9.8,14.2,9.5,13.9h-9.1l-3.3-5.1-1.7-2.7h0l-1.7,2.7-3.3,5.1h-8.2l9.7-14.2L62.4,0h9.1l3.5,5.8Z"/>
      <path d="M102.7,5.8l1.3,2.3h0l1.3-2.3,3.6-5.8h8.4l-9.8,14.2,9.5,13.9h-9.1l-3.3-5.1-1.7-2.7h0l-1.7,2.7-3.3,5.1h-8.2l9.7-14.2L90.1,0h9.1s3.5,5.8,3.5,5.8Z"/>
      <path d="M70.9,43.8l1.3,2.3h0l1.3-2.3,3.6-5.8h8.4l-9.8,14.2,9.5,13.9h-9.1l-3.3-5.1-1.7-2.7h0l-1.7,2.7-3.3,5.1h-8.2l9.7-14.2-9.4-14h9.1l3.5,5.8h0Z"/>
      <path d="M57.1,87.2l1.3,2.3h0l1.3-2.3,3.6-5.8h8.5l-9.8,14.2,9.5,13.9h-9l-3.3-5.1-1.7-2.7h0l-1.7,2.7-3.3,5.1h-8.2l9.7-14.2-9.4-14h9.1l3.5,5.8h0Z"/>
      <path d="M91.8,120.3l1.3,2.3h0l1.3-2.3,3.6-5.8h8.4l-9.8,14.2,9.5,13.9h-9.1l-3.3-5.1-1.7-2.7h0l-1.7,2.7-3.3,5.1h-8.2l9.7-14.2-9.4-14h9.1l3.5,5.8h0Z"/>
      <path d="M123.7,87.2l1.3,2.3h0l1.3-2.3,3.6-5.8h8.4l-9.8,14.2,9.5,13.9h-9.1l-3.3-5.1-1.7-2.7h0l-1.7,2.7-3.3,5.1h-8.2l9.7-14.2-9.4-14h9.1l3.5,5.8h0Z"/>
      <path d="M166.7,50.8l1.4,2.3h0l1.3-2.3,3.6-5.8h8.4l-9.8,14.2,9.5,13.9h-9.1l-3.3-5.1-1.7-2.7h0l-1.7,2.7-3.3,5.1h-8.2l9.7-14.2-9.4-14h9.1l3.5,5.8h0Z"/>
      <path d="M175.3,87.2l1.4,2.3h0l1.3-2.3,3.6-5.8h8.4l-9.8,14.2,9.5,13.9h-9.1l-3.3-5.1-1.7-2.7h0l-1.7,2.7-3.3,5.1h-8.2l9.7-14.2-9.4-14h9.1l3.5,5.8h0Z"/>
      <path d="M161.4,120.9l1.4,2.3h0l1.3-2.3,3.6-5.8h8.4l-9.8,14.2,9.5,13.9h-9.1l-3.3-5.1-1.7-2.7h0l-1.7,2.7-3.3,5.1h-8.2l9.7-14.2-9.4-14h9.1l3.5,5.8h0Z"/>
      <path d="M173,165.4l1.4,2.3h0l1.3-2.3,3.6-5.8h8.4l-9.8,14.2,9.5,13.9h-9.1l-3.3-5.1-1.7-2.7h0l-1.7,2.7-3.3,5.1h-8.2l9.7-14.2-9.4-14h9.1l3.5,5.8h0Z"/>
      <path d="M210.3,155.4l1.4,2.3h0l1.3-2.3,3.6-5.8h8.4l-9.8,14.2,9.5,13.9h-9.1l-3.3-5.1-1.7-2.7h0l-1.7,2.7-3.3,5.1h-8.2l9.7-14.2-9.4-14h9.1l3.5,5.8h0Z"/>
      <path d="M131.9,151.9l1.4,2.3h0l1.3-2.3,3.6-5.8h8.4l-9.8,14.2,9.5,13.9h-9.1l-3.3-5.1-1.7-2.7h0l-1.7,2.7-3.3,5.1h-8.2l9.7-14.2-9.4-14h9.1l3.5,5.8h0Z"/>
      <path d="M87.7,165.8l1.3,2.3h0l1.3-2.3,3.6-5.8h8.4l-9.8,14.2,9.5,13.9h-9.1l-3.3-5.1-1.7-2.7h0l-1.7,2.7-3.3,5.1h-8.2l9.7-14.2-9.4-14h9.1l3.5,5.8h0Z"/>
      <path d="M53.5,149.1l1.3,2.3h0l1.3-2.3,3.6-5.8h8.4l-9.8,14.2,9.5,13.9h-9l-3.3-5.1-1.7-2.7h0l-1.7,2.7-3.3,5.1h-8.2l9.7-14.2-9.4-14h9.1l3.5,5.8h0Z"/>
      <path d="M251.1,159.1l1.4,2.3h0l1.3-2.3,3.6-5.8h8.5l-9.8,14.2,9.5,13.9h-9l-3.3-5.1-1.7-2.7h0l-1.7,2.7-3.3,5.1h-8.2l9.7-14.2-9.4-14h9.1l3.5,5.8h0Z"/>
      <path d="M292,169.4l1.4,2.3h0l1.3-2.3,3.6-5.8h8.5l-9.8,14.2,9.5,13.9h-9l-3.3-5.1-1.7-2.7h0l-1.7,2.7-3.3,5.1h-8.2l9.7-14.2-9.4-14h9.1l3.5,5.8h0Z"/>
      <path d="M259.7,195.5l1.4,2.3h0l1.3-2.3,3.6-5.8h8.5l-9.8,14.2,9.5,13.9h-9l-3.3-5.1-1.7-2.7h0l-1.7,2.7-3.3,5.1h-8.2l9.7-14.2-9.4-14h9.1l3.5,5.8h0Z"/>
      <path d="M245.8,229.1l1.4,2.3h0l1.3-2.3,3.6-5.8h8.4l-9.8,14.2,9.5,13.9h-9.1l-3.3-5.1-1.7-2.7h0l-1.7,2.7-3.3,5.1h-8.2l9.7-14.2-9.4-14h9.1l3.5,5.8h0Z"/>
      <path d="M265,265.7l1.4,2.3h0l1.3-2.3,3.6-5.8h8.5l-9.8,14.2,9.5,13.9h-9l-3.3-5.1-1.7-2.7h0l-1.7,2.7-3.3,5.1h-8.2l9.7-14.2-9.4-14h9.1l3.5,5.8h0Z"/>
      <path d="M285.2,304.3l1.4,2.3h0l1.3-2.3,3.6-5.8h8.5l-9.8,14.2,9.5,13.9h-9l-3.3-5.1-1.7-2.7h0l-1.7,2.7-3.3,5.1h-8.2l9.7-14.2-9.4-14h9.1l3.5,5.8h0Z"/>
      <path d="M303.5,346.3l1.4,2.3h0l1.3-2.3,3.6-5.8h8.5l-9.8,14.2,9.5,13.9h-9l-3.3-5.1-1.7-2.7h0l-1.7,2.7-3.3,5.1h-8.2l9.7-14.2-9.4-14h9.1l3.5,5.8h0Z"/>
      <path d="M75.2,203.4l1.3,2.3h0l1.3-2.3,3.6-5.8h8.4l-9.8,14.2,9.5,13.9h-9.1l-3.3-5.1-1.7-2.7h0l-1.7,2.7-3.3,5.1h-8.2l9.7-14.2-9.4-14h9.1l3.5,5.8h0Z"/>
      <path d="M61.4,237.1l1.3,2.3h0l1.3-2.3,3.6-5.8h8.4l-9.8,14.2,9.5,13.9h-9.1l-3.3-5.1-1.7-2.7h0l-1.7,2.7-3.3,5.1h-8.2l9.7-14.2-9.4-14h9.1l3.5,5.8h0Z"/>
      <path d="M80.5,273.7l1.3,2.3h0l1.3-2.3,3.6-5.8h8.4l-9.8,14.2,9.5,13.9h-9.1l-3.3-5.1-1.7-2.7h0l-1.7,2.7-3.3,5.1h-8.2l9.7-14.2-9.4-14h9.1l3.5,5.8h0Z"/>
      <path d="M49.3,293.9l1.3,2.3h0l1.3-2.3,3.6-5.8h8.5l-9.8,14.2,9.5,13.9h-9l-3.3-5.1-1.7-2.7h0l-1.7,2.7-3.3,5.1h-8.2l9.7-14.2-9.4-14h9.1l3.5,5.8h0Z"/>
      <path d="M47.5,336.5l1.3,2.3h0l1.3-2.3,3.6-5.8h8.5l-9.8,14.2,9.5,13.9h-9l-3.3-5.1-1.7-2.7h0l-1.7,2.7-3.3,5.1h-8.2l9.7-14.2-9.4-14h9.1l3.5,5.8h0Z"/>
      <path d="M111.3,314l1.3,2.3h0l1.3-2.3,3.6-5.8h8.4l-9.8,14.2,9.5,13.9h-9.1l-3.3-5.1-1.7-2.7h0l-1.7,2.7-3.3,5.1h-8.2l9.7-14.2-9.4-14h9.1l3.5,5.8h0Z"/>
      <path d="M111.3,350.6l1.3,2.3h0l1.3-2.3,3.6-5.8h8.4l-9.8,14.2,9.5,13.9h-9.1l-3.3-5.1-1.7-2.7h0l-1.7,2.7-3.3,5.1h-8.2l9.7-14.2-9.4-14h9.1l3.5,5.8h0Z"/>
      <path d="M111.3,387.8l1.3,2.3h0l1.3-2.3,3.6-5.8h8.4l-9.8,14.2,9.5,13.9h-9.1l-3.3-5.1-1.7-2.7h0l-1.7,2.7-3.3,5.1h-8.2l9.7-14.2-9.4-14h9.1l3.5,5.8h0Z"/>
      <path d="M219.5,318.1l1.4,2.3h0l1.3-2.3,3.6-5.8h8.4l-9.8,14.2,9.5,13.9h-9.1l-3.3-5.1-1.7-2.7h0l-1.7,2.7-3.3,5.1h-8.2l9.7-14.2-9.4-14h9.1l3.5,5.8h0Z"/>
      <path d="M219.5,355.5l1.4,2.3h0l1.3-2.3,3.6-5.8h8.4l-9.8,14.2,9.5,13.9h-9.1l-3.3-5.1-1.7-2.7h0l-1.7,2.7-3.3,5.1h-8.2l9.7-14.2-9.4-14h9.1l3.5,5.8h0Z"/>
      <path d="M219.5,390.3l1.4,2.3h0l1.3-2.3,3.6-5.8h8.4l-9.8,14.2,9.5,13.9h-9.1l-3.3-5.1-1.7-2.7h0l-1.7,2.7-3.3,5.1h-8.2l9.7-14.2-9.4-14h9.1l3.5,5.8h0Z"/>
      <path d="M111.8,43.8l1.3,2.3h0l1.3-2.3,3.6-5.8h8.4l-9.8,14.2,9.5,13.9h-9.1l-3.3-5.1-1.7-2.7h0l-1.7,2.7-3.3,5.1h-8.2l9.7-14.2-9.4-14h9.1l3.5,5.8h0Z"/>
      <path d="M230.3,44.4l1.4,2.3h0l1.3-2.3,3.6-5.8h8.4l-9.8,14.2,9.5,13.9h-9.1l-3.3-5.1-1.7-2.7h0l-1.7,2.7-3.3,5.1h-8.2l9.7-14.2-9.4-14h9.1l3.5,5.8h0Z"/>
      <path d="M216.4,87.8l1.4,2.3h0l1.3-2.3,3.6-5.8h8.4l-9.8,14.2,9.5,13.9h-9.1l-3.3-5.1-1.7-2.7h0l-1.7,2.7-3.3,5.1h-8.2l9.7-14.2-9.4-14h9.1l3.5,5.8h0Z"/>
      <path d="M251.2,120.9l1.4,2.3h0l1.3-2.3,3.6-5.8h8.5l-9.8,14.2,9.5,13.9h-9l-3.3-5.1-1.7-2.7h0l-1.7,2.7-3.3,5.1h-8.2l9.7-14.2-9.4-14h9.1l3.5,5.8h0Z"/>
      <path d="M283.1,87.8l1.4,2.3h0l1.3-2.3,3.6-5.8h8.5l-9.8,14.2,9.5,13.9h-9l-3.3-5.1-1.7-2.7h0l-1.7,2.7-3.3,5.1h-8.2l9.7-14.2-9.4-14h9.1l3.5,5.8h0Z"/>
      <path d="M271.1,44.4l1.4,2.3h0l1.3-2.3,3.6-5.8h8.5l-9.8,14.2,9.5,13.9h-9l-3.3-5.1-1.7-2.7h0l-1.7,2.7-3.3,5.1h-8.2l9.7-14.2-9.4-14h9.1l3.5,5.8h0Z"/>
      <path d="M152.8,206.5l1.4,2.3h0l1.3-2.3,3.6-5.8h8.4l-9.8,14.2,9.5,13.9h-9.1l-3.3-5.1-1.7-2.7h0l-1.7,2.7-3.3,5.1h-8.2l9.7-14.2-9.4-14h9.1l3.5,5.8h0Z"/>
      <path d="M139,249.9l1.4,2.3h0l1.3-2.3,3.6-5.8h8.4l-9.8,14.3,9.5,13.9h-9.1l-3.3-5.1-1.7-2.7h0l-1.7,2.7-3.3,5.1h-8.2l9.7-14.2-9.4-14h9.1l3.5,5.8h0Z"/>
      <path d="M173.7,283l1.4,2.3h0l1.3-2.3,3.6-5.8h8.4l-9.8,14.2,9.5,13.9h-9.1l-3.3-5.1-1.7-2.7h0l-1.7,2.7-3.3,5.1h-8.2l9.7-14.2-9.4-14h9.1l3.5,5.8h0Z"/>
      <path d="M205.6,249.9l1.4,2.3h0l1.3-2.3,3.6-5.8h8.4l-9.8,14.3,9.5,13.9h-9.1l-3.3-5.1-1.7-2.7h0l-1.7,2.7-3.3,5.1h-8.2l9.7-14.2-9.4-14h9.1l3.5,5.8h0Z"/>
      <path d="M193.7,206.5l1.4,2.3h0l1.3-2.3,3.6-5.8h8.4l-9.8,14.2,9.5,13.9h-9.1l-3.3-5.1-1.7-2.7h0l-1.7,2.7-3.3,5.1h-8.2l9.7-14.2-9.4-14h9.1l3.5,5.8h0Z"/>
      <path d="M49.3,425l1.3,2.3h0l1.3-2.3,3.6-5.8h8.5l-9.8,14.2,9.5,13.9h-9l-3.3-5.1-1.7-2.7h0l-1.7,2.7-3.3,5.1h-8.2l9.7-14.2-9.4-14h9.1l3.5,5.8h0Z"/>
      <path d="M77,425l1.3,2.3h0l1.3-2.3,3.6-5.8h8.4l-9.8,14.2,9.5,13.9h-9.1l-3.3-5.1-1.7-2.7h0l-1.7,2.7-3.3,5.1h-8.2l9.7-14.2-9.4-14h9.1l3.5,5.8h0Z"/>
      <path d="M104.7,425l1.3,2.3h0l1.3-2.3,3.6-5.8h8.4l-9.8,14.2,9.5,13.9h-9.1l-3.3-5.1-1.7-2.7h0l-1.7,2.7-3.3,5.1h-8.2l9.7-14.2-9.4-14h9.1l3.5,5.8h0Z"/>
      <path d="M132.4,425l1.4,2.3h0l1.3-2.3,3.6-5.8h8.4l-9.8,14.2,9.5,13.9h-9.1l-3.3-5.1-1.7-2.7h0l-1.7,2.7-3.3,5.1h-8.2l9.7-14.2-9.4-14h9.1l3.5,5.8h0Z"/>
      <path d="M160.1,425l1.4,2.3h0l1.3-2.3,3.6-5.8h8.4l-9.8,14.2,9.5,13.9h-9.1l-3.3-5.1-1.7-2.7h0l-1.7,2.7-3.3,5.1h-8.2l9.7-14.2-9.4-14h9.1l3.5,5.8h0Z"/>
      <path d="M187.8,425l1.4,2.3h0l1.3-2.3,3.6-5.8h8.4l-9.8,14.2,9.5,13.9h-9.1l-3.3-5.1-1.7-2.7h0l-1.7,2.7-3.3,5.1h-8.2l9.7-14.2-9.4-14h9.1l3.5,5.8h0Z"/>
      <path d="M215.5,425l1.4,2.3h0l1.3-2.3,3.6-5.8h8.4l-9.8,14.2,9.5,13.9h-9.1l-3.3-5.1-1.7-2.7h0l-1.7,2.7-3.3,5.1h-8.2l9.7-14.2-9.4-14h9.1l3.5,5.8h0Z"/>
      <path d="M243.2,425l1.4,2.3h0l1.3-2.3,3.6-5.8h8.5l-9.8,14.2,9.5,13.9h-9.1l-3.3-5.1-1.7-2.7h0l-1.7,2.7-3.3,5.1h-8.2l9.7-14.2-9.4-14h9.1l3.5,5.8h0Z"/>
      <path d="M271.4,425.3l1.4,2.3h0l1.3-2.3,3.6-5.8h8.5l-9.8,14.2,9.5,13.9h-9l-3.3-5.1-1.7-2.7h0l-1.7,2.7-3.3,5.1h-8.2l9.7-14.2-9.4-14h9.1l3.5,5.8h0Z"/>
      <path d="M299.1,425.3l1.4,2.3h0l1.3-2.3,3.6-5.8h8.5l-9.8,14.2,9.5,13.9h-9l-3.3-5.1-1.7-2.7h0l-1.7,2.7-3.3,5.1h-8.2l9.7-14.2-9.4-14h9.1l3.5,5.8h0Z"/>
      <path d="M130.4,5.8l1.4,2.3h0l1.3-2.3,3.6-5.8h8.4l-9.8,14.2,9.5,13.9h-9.1l-3.3-5.1-1.7-2.7h0l-1.7,2.7-3.3,5.1h-8.2l9.7-14.2L117.8,0h9.1l3.5,5.8Z"/>
      <path d="M158.1,5.8l1.4,2.3h0l1.3-2.3,3.6-5.8h8.4l-9.8,14.2,9.5,13.9h-9.1l-3.3-5.1-1.7-2.7h0l-1.7,2.7-3.3,5.1h-8.2l9.7-14.2-9.4-14h9.1l3.5,5.8h0Z"/>
      <path d="M186.1,5.8l1.4,2.3h0l1.3-2.3,3.6-5.8h8.4l-9.8,14.2,9.5,13.9h-9.1l-3.3-5.1-1.7-2.7h0l-1.7,2.7-3.3,5.1h-8.2l9.7-14.2-9.4-14h9.1l3.5,5.8h0Z"/>
      <path d="M213.8,5.8l1.4,2.3h0l1.3-2.3,3.6-5.8h8.4l-9.8,14.2,9.5,13.9h-9.1l-3.3-5.1-1.7-2.7h0l-1.7,2.7-3.3,5.1h-8.2l9.7-14.2-9.4-14h9.1l3.5,5.8h0Z"/>
      <path d="M241.5,5.8l1.4,2.3h0l1.3-2.3,3.6-5.8h8.5l-9.8,14.2,9.5,13.9h-9.1l-3.3-5.1-1.7-2.7h0l-1.7,2.7-3.3,5.1h-8.2l9.7-14.2-9.4-14h9.1l3.5,5.8h0Z"/>
      <path d="M269.2,5.8l1.4,2.3h0l1.3-2.3,3.6-5.8h8.5l-9.8,14.2,9.5,13.9h-9l-3.3-5.1-1.7-2.7h0l-1.7,2.7-3.3,5.1h-8.2l9.7-14.2-9.4-14h9.1l3.5,5.8h0Z"/>
      <path d="M297,5.8l1.4,2.3h0l1.3-2.3,3.6-5.8h8.5l-9.8,14.2,9.5,13.9h-9l-3.3-5.1-1.7-2.7h0l-1.7,2.7-3.3,5.1h-8.2l9.7-14.2-9.4-14h9.1l3.5,5.8h0Z"/>
      <path d="M324.6,5.8l1.4,2.3h0l1.3-2.3,3.6-5.8h8.5l-9.8,14.2,9.5,13.9h-9l-3.3-5.1-1.7-2.7h0l-1.7,2.7-3.3,5.1h-8.2l9.7-14.2-9.4-14h9.1l3.5,5.8h0Z"/>
      <path d="M22.4,44.4l-2.3,1.3h0c0,0,2.3,1.4,2.3,1.4l5.8,3.6v8.5l-14.2-9.8L0,58.9v-9l5.1-3.3,2.7-1.7h0c0,0-2.7-1.8-2.7-1.8l-5.1-3.3v-8.2l14.2,9.7,14-9.4v9.1l-5.8,3.5h0Z"/>
      <path d="M22.4,72.1l-2.3,1.3h0c0,0,2.3,1.4,2.3,1.4l5.8,3.6v8.4l-14.2-9.8L0,86.6v-9.1l5.1-3.3,2.7-1.7h0c0,0-2.7-1.8-2.7-1.8l-5.1-3.3v-8.2l14.2,9.7,14-9.4v9.1l-5.8,3.5h0Z"/>
      <path d="M22.4,99.8l-2.3,1.3h0c0,0,2.3,1.4,2.3,1.4l5.8,3.6v8.4l-14.2-9.8L0,114.3v-9.1l5.1-3.3,2.7-1.7h0c0,0-2.7-1.8-2.7-1.8l-5.1-3.3v-8.2l14.2,9.7,14-9.4v9.1l-5.8,3.5h0Z"/>
      <path d="M22.4,127.5l-2.3,1.3h0c0,0,2.3,1.4,2.3,1.4l5.8,3.6v8.4l-14.2-9.8L0,142v-9.1l5.1-3.3,2.7-1.7h0c0,0-2.7-1.8-2.7-1.8L0,122.8v-8.2l14.2,9.7,14-9.4v9.1l-5.8,3.5h0Z"/>
      <path d="M22.4,155.2l-2.3,1.4h0c0,0,2.3,1.4,2.3,1.4l5.8,3.6v8.4l-14.2-9.8L0,169.7v-9.1l5.1-3.3,2.7-1.7h0c0,0-2.7-1.8-2.7-1.8L0,150.5v-8.2l14.2,9.7,14-9.4v9.1l-5.8,3.5h0Z"/>
      <path d="M22.4,182.9l-2.3,1.4h0c0,0,2.3,1.4,2.3,1.4l5.8,3.6v8.4l-14.2-9.8L0,197.4v-9.1l5.1-3.3,2.7-1.7h0c0,0-2.7-1.8-2.7-1.8L0,178.2v-8.2l14.2,9.7,14-9.4v9.1l-5.8,3.5h0Z"/>
      <path d="M22.4,210.6l-2.3,1.4h0c0,0,2.3,1.4,2.3,1.4l5.8,3.6v8.4l-14.2-9.8L0,225.1v-9.1l5.1-3.3,2.7-1.7h0c0,0-2.7-1.8-2.7-1.8L0,205.9v-8.2l14.2,9.7,14-9.4v9.1l-5.8,3.5h0Z"/>
      <path d="M22.4,238.3l-2.3,1.4h0c0,0,2.3,1.4,2.3,1.4l5.8,3.6v8.4l-14.2-9.8L0,252.8v-9.1l5.1-3.3,2.7-1.7h0c0,0-2.7-1.8-2.7-1.8L0,233.6v-8.2l14.2,9.7,14-9.4v9.1l-5.8,3.5h0Z"/>
      <path d="M22.4,266l-2.3,1.4h0c0,0,2.3,1.4,2.3,1.4l5.8,3.6v8.5l-14.2-9.8L0,280.5v-9l5.1-3.3,2.7-1.7h0c0,0-2.7-1.8-2.7-1.8L0,261.3v-8.2l14.2,9.7,14-9.4v9.1l-5.8,3.5h0Z"/>
      <path d="M22.4,293.7l-2.3,1.4h0c0,0,2.3,1.4,2.3,1.4l5.8,3.6v8.5l-14.2-9.8L0,308.2v-9l5.1-3.3,2.7-1.7h0c0,0-2.7-1.8-2.7-1.8L0,289v-8.2l14.2,9.7,14-9.4v9.1l-5.8,3.5h0Z"/>
      <path d="M22.4,321.4l-2.3,1.4h0c0,0,2.3,1.4,2.3,1.4l5.8,3.6v8.5l-14.2-9.8L0,335.9v-9l5.1-3.3,2.7-1.7h0c0,0-2.7-1.8-2.7-1.8L0,316.7v-8.2l14.2,9.7,14-9.4v9.1l-5.8,3.5h0Z"/>
      <path d="M22.4,349.1l-2.3,1.4h0c0,0,2.3,1.4,2.3,1.4l5.8,3.6v8.5l-14.2-9.8L0,363.6v-9l5.1-3.3,2.7-1.7h0c0,0-2.7-1.8-2.7-1.8L0,344.4v-8.2l14.2,9.7,14-9.4v9.1l-5.8,3.5h0Z"/>
      <path d="M342.4,48.5l-2.3,1.3h0c0,0,2.3,1.4,2.3,1.4l5.8,3.6v8.5l-14.2-9.8-13.9,9.5v-9l5.1-3.3,2.7-1.7h0c0,0-2.7-1.8-2.7-1.8l-5.1-3.3v-8.2l14.2,9.7,14-9.4v9.1l-5.8,3.5h0Z"/>
      <path d="M342.4,76.2l-2.3,1.3h0c0,0,2.3,1.4,2.3,1.4l5.8,3.6v8.4l-14.2-9.8-13.9,9.5v-9.1l5.1-3.3,2.7-1.7h0c0,0-2.7-1.8-2.7-1.8l-5.1-3.3v-8.2l14.2,9.7,14-9.4v9.1l-5.8,3.5h0Z"/>
      <path d="M342.4,103.9l-2.3,1.3h0c0,0,2.3,1.4,2.3,1.4l5.8,3.6v8.4l-14.2-9.8-13.9,9.5v-9.1l5.1-3.3,2.7-1.7h0c0,0-2.7-1.8-2.7-1.8l-5.1-3.3v-8.2l14.2,9.7,14-9.4v9.1l-5.8,3.5h0Z"/>
      <path d="M342.4,131.6l-2.3,1.4h0c0,0,2.3,1.4,2.3,1.4l5.8,3.6v8.4l-14.2-9.8-13.9,9.5v-9.1l5.1-3.3,2.7-1.7h0c0,0-2.7-1.8-2.7-1.8l-5.1-3.3v-8.2l14.2,9.7,14-9.4v9.1l-5.8,3.5h0Z"/>
      <path d="M342.4,159.4l-2.3,1.4h0c0,0,2.3,1.4,2.3,1.4l5.8,3.6v8.4l-14.2-9.8-13.9,9.5v-9.1l5.1-3.3,2.7-1.7h0c0,0-2.7-1.8-2.7-1.8l-5.1-3.3v-8.2l14.2,9.7,14-9.4v9.1l-5.8,3.5h0Z"/>
      <path d="M342.4,187.1l-2.3,1.4h0c0,0,2.3,1.4,2.3,1.4l5.8,3.6v8.4l-14.2-9.8-13.9,9.5v-9.1l5.1-3.3,2.7-1.7h0c0,0-2.7-1.8-2.7-1.8l-5.1-3.3v-8.2l14.2,9.7,14-9.4v9.1l-5.8,3.5h0Z"/>
      <path d="M342.4,214.8l-2.3,1.4h0c0,0,2.3,1.4,2.3,1.4l5.8,3.6v8.4l-14.2-9.8-13.9,9.5v-9.1l5.1-3.3,2.7-1.7h0c0,0-2.7-1.8-2.7-1.8l-5.1-3.3v-8.2l14.2,9.7,14-9.4v9.1l-5.8,3.5h0Z"/>
      <path d="M342.4,242.4l-2.3,1.4h0c0,0,2.3,1.4,2.3,1.4l5.8,3.6v8.5l-14.2-9.8-13.9,9.5v-9.1l5.1-3.3,2.7-1.7h0c0,0-2.7-1.8-2.7-1.8l-5.1-3.3v-8.2l14.2,9.7,14-9.4v9.1l-5.8,3.5h0Z"/>
      <path d="M342.4,270.1l-2.3,1.4h0c0,0,2.3,1.4,2.3,1.4l5.8,3.6v8.5l-14.2-9.8-13.9,9.5v-9l5.1-3.3,2.7-1.7h0c0,0-2.7-1.8-2.7-1.8l-5.1-3.3v-8.2l14.2,9.7,14-9.4v9.1l-5.8,3.5h0Z"/>
      <path d="M342.4,297.9l-2.3,1.4h0c0,0,2.3,1.4,2.3,1.4l5.8,3.6v8.5l-14.2-9.8-13.9,9.5v-9l5.1-3.3,2.7-1.7h0c0,0-2.7-1.8-2.7-1.8l-5.1-3.3v-8.2l14.2,9.7,14-9.4v9.1l-5.8,3.5h0Z"/>
      <path d="M342.4,325.5l-2.3,1.4h0c0,0,2.3,1.4,2.3,1.4l5.8,3.6v8.5l-14.2-9.8-13.9,9.5v-9l5.1-3.3,2.7-1.7h0c0,0-2.7-1.8-2.7-1.8l-5.1-3.3v-8.2l14.2,9.7,14-9.4v9.1l-5.8,3.5h0Z"/>
      <path d="M342.4,353.2l-2.3,1.4h0c0,0,2.3,1.4,2.3,1.4l5.8,3.6v8.5l-14.2-9.8-13.9,9.5v-9l5.1-3.3,2.7-1.7h0c0,0-2.7-1.8-2.7-1.8l-5.1-3.3v-8.2l14.2,9.7,14-9.4v9.1l-5.8,3.5h0Z"/>
      <path d="M342.4,376.8l-2.3,1.4h0c0,0,2.3,1.4,2.3,1.4l5.8,3.6v8.5l-14.2-9.8-13.9,9.5v-9l5.1-3.3,2.7-1.7h0c0,0-2.7-1.8-2.7-1.8l-5.1-3.3v-8.2l14.2,9.7,14-9.4v9.1l-5.8,3.5h0Z"/>
      <path d="M342.4,404.5l-2.3,1.4h0c0,0,2.3,1.4,2.3,1.4l5.8,3.6v8.5l-14.2-9.8-13.9,9.5v-9l5.1-3.3,2.7-1.7h0c0,0-2.7-1.8-2.7-1.8l-5.1-3.3v-8.2l14.2,9.7,14-9.4v9.1l-5.8,3.5h0Z"/>
      <path d="M342.4,432.2l-2.3,1.4h0c0,0,2.3,1.4,2.3,1.4l5.8,3.6v8.5l-14.2-9.8-13.9,9.5v-9l5.1-3.3,2.7-1.7h0c0,0-2.7-1.8-2.7-1.8l-5.1-3.3v-8.2l14.2,9.7,14-9.4v9.1l-5.8,3.5h0Z"/>
      <path d="M22.4,376.8l-2.3,1.4h0c0,0,2.3,1.4,2.3,1.4l5.8,3.6v8.5l-14.2-9.8L0,391.3v-9l5.1-3.3,2.7-1.7h0c0,0-2.7-1.8-2.7-1.8L0,372.1v-8.2l14.2,9.7,14-9.4v9.1l-5.8,3.5h0Z"/>
      <path d="M22.4,404.5l-2.3,1.4h0c0,0,2.3,1.4,2.3,1.4l5.8,3.6v8.5l-14.2-9.8L0,419v-9l5.1-3.3,2.7-1.7h0c0,0-2.7-1.8-2.7-1.8L0,399.8v-8.2l14.2,9.7,14-9.4v9.1l-5.8,3.5h0Z"/>
      <path d="M22.4,432.2l-2.3,1.4h0c0,0,2.3,1.4,2.3,1.4l5.8,3.6v8.5l-14.2-9.8L0,446.7v-9l5.1-3.3,2.7-1.7h0c0,0-2.7-1.8-2.7-1.8L0,427.5v-8.2l14.2,9.7,14-9.4v9.1l-5.8,3.5h0Z"/>
    </g>
  </g>
</svg>