<?xml version="1.0" encoding="UTF-8"?>
<svg id="Layer_2" data-name="Layer 2" xmlns="http://www.w3.org/2000/svg" viewBox="0 0 464.61 423.13">
  <defs>
    <style>
      .cls-1 {
        fill: #ff4ebb;
      }
    </style>
  </defs>
  <g id="Layer_1-2" data-name="Layer 1">
    <g id="c8HZdA">
      <g>
        <g>
          <path class="cls-1" d="M122.89,160.36c.46,2.3,1.85,4.6,1.31,7.22-1.22.53-1.79-1.25-1.97-1.97-.17-.66.14-1.74-.15-2.78-.25-.91-1.46-1.29-1.17-2.47h1.98Z"/>
          <path class="cls-1" d="M214.88,2.67c.58,3.84-2.65,1.88-3.29,2.26-1.59.95.51,4.57,0,6.28-1.72-.6-1.27-4.98-3.6-4.6-1.65.27,0,2.85-.34,3.28-6.27-3.27-6.28,2.1-8.41,3.28-2.29,1.28-5.93-2.4-8.34,1.96-4.25-6.46-4.27,2.79-5.54,3.67-.92.63-2.92.05-4.19.41s-2.12,3.05-3.43,1.19c-.15-.21.6-2.38-.65-2.63-1.08-.21-1.71,1.54-2.75,1.84-2.18.62-3.9-.84-5.32,1.93-.81,1.57.11,2.99-1.13,4.1-1.97.28-.03-1.21-.9-2.32-2.51-3.22-4.25-1.5-3.37,2.32-3.1-1.31-6.22-1.56-9.19-3.28-.44,1.91-1.58,4.34.33,5.9,2.72,0-1.57-2.85-.01-3.93.98.8,2.95,2.88,3.96,3.27,1.24.48,1.06-2.75,2.28-1.3.84.99-1.88,3.23-1.3,3.94,10.02-5.3,4.8.84,4.6,6.57,1.3.12.24-1.54.81-2.47.16-.25,1.02-.36,1.42-.88s.27-1.61.49-1.8c.44-.39,1.92.08,2.74-.11.44-.1,1.94-3.92,2.76.64,1.75.22,4.82,3.76,5.88,3.98,3.33.71.68-1.62.37-3-.79-3.59,2.84-3.26,1.96.35,1.18.56,2.17-2.13,2.96-.67.56,1.03.29,2.2.32,3.29,2.1.55.9-1.3,1.41-1.82.48-.48,4.05-.68,4.96-2.02,2.56.56,3.21,4,6.1,3.18.25-2.24-1.57-.5-2.69-2.89-.61-1.28-1-2.78.41-3.68,2.72.05.73,3.01.97,3.28.06.07,1.57.66,1.65.65.51-.03.72-1.81,1.44-1.98.42-.1,5.88-.58,6.48-.56,3.22.1,2.55,3.8,4.57-2.05l1.64,1.31-.65-3.93c3.13-.26,1.06,5.57,1.32,5.91,2.39-2.4,4.85.21,7.87-1.31v3.94c.81,1.06,1.2,0,1.32-.97.49-3.92-1.66-9.5,5.24-5.93-3.38,1.97-3.93,2.7-3.93,6.9,2.15.43.91-1.69,1.91-3,1.63-2.15,3.04.26,4.97.44,2.14.2,3.44-1.16,4.3-1.07,2.07.23.9,2.29,1.63,2.32.84.04,2.43-1,3.6-.67.21-1.23-1.26-.31-1.84-.76-.31-.24-2.16-7.94.53-7.12-.98,1.12,2.85,7.32,3.26,7.59,1.03.68,4.42.14,5.94.95v-1.97c-2.8,1.79-6.4-2.94-5.25-3.94,1.62-1.41,3.28,1.67,3.47,1.77,2.42,1.22,9.41,1.97,3.11,4.47.96,1.37,2.49,1,3.93.99-1.26,4.8,2.77,2.11,2.63-1.32,1.59-.47,2.88,1.68,4.24,1.31,1.22-.33.8-3.61,2.01-3.94,1.3-.36,2.28,1.33,3.27,1.33,1.3,0,2.52-2.9,2.96.64l-1.97,1.31c4.4-.04,7.75,2.28,11.83,0l-.33,1.31h4.6c1.21-.82-2.57-.67-.98-1.97.26-.22,6.07.46,6.77.64,1.1.27.57,4.16,3.4,4.63,3,.49-1.76-3.3-.98-3.95,4.05-1.37,1.94,3.92,5.26,2.29l-1.32-2.29c3.77-.56,2.37,2.71,3.19,3.65,1.13,1.29,3.16.3,3.8,2.29l6.8-1.01-7.23-1.3-.65-.99c1.53-.08,3.6.75,3.3-1.31h.64c.65,3.59,4.62,1.72,7.24,1.96-.05,2.7.73,4.7-1.64,6.58-5.6,4.42-9.07,2.07-15.09,1.94-24.12-.52-49.38.84-73.6,2.03-9.73.48-20.48,0-30.1,1.46-2.34.36-2.43,1.6-2.89,1.73-.35.1-2.3-.51-2.84.07-.91.97.05,1.19.97,1.31.97.12,5.24.23,5.9.04.61-.17.1-3.42,1.66-2.01.16.14,0,1.52,1.07,1.88,3.46,1.16,11.22-2.04,12.74,2.71-7.58-1.14-15.93.75-23.65,1.33.72,1.78,3.93-.3,5.25,0l-4.59,2.62c1.37.39,3.07-.82,4.18-.68.42.05.32,1.11.91,1.31.96.33,6.4.71,7.72.74s8.58-1.04,8.88-.71c.17.18-.02,4,1.64,4.58,2.41-2.2,5.32-2.96,3.62,1.33,3.58-1.66,5.11-2.45,9.2-1.3l-1.97.66c1.16,1.47,1.6,2.65,1.32,4.59.19.24,5.13-2.65,5.32-2.89.83-1.06.45-2.84.59-3.03,1.34-1.72,1.8,3.17,1.98,3.29.27.19,1.5-.59,2.19-.47,1.48.25,2.52,1.64,4.04,1.79-.79-3.06-.02-1.97.91-3.06.56-.65,1.33-2.86,2.05-1.05.34.85-.76,1.49.99,1.51.57,0,4.33-.09,4.55-.15,1.2-.33.45-2.43,2.35-1.85-.47,2.87.13,3.18,2.31,4.59l-.34-2.61c1.52-.4,2.11,1.6,2.96,1.96.44.19.19-.86.79-1.3,1.13-.83,3.97,1.39,5.4,2.37.55.38.61,1.55,1.09,1.59.68.05,1.84-.91,3.09-.69,1.16.2,2.74,4.53,5.06,1.33-.78,4.44,4.2,8.67,1.98,1.32h2.62c-.11,1.29.31,3-.09,4.19-.3.89-1.57.9-1.74,1.17-.86,1.4,2.56,7.07,1.84,9.09,2.76,1.24,1.94-3,1.29-4.8-.27-.73-1.52-.29-1.29-.79.16-.34,1.02-.75,1.17-1.47.7-3.22-1.28-3.9,3.43-3.46-.29,1.14-1.81,1.67-2.29,2.63-1.32,2.67.71,2.19,1.21,4,1.25,4.49.5,8.51-4.84,7.17.98,2.22,1.96,4.17,4.59,2.62.46,2.01-1.54,2.57-1.98,4.26l1.98.34c.17,3.2.02,6.56-1.97,9.19,2.07-.26,4.39,1.01,3.68-1.31,1.54.2,1.53-3.78,2.88-2.62.18.15,1.67,3.63,1.33,3.93-.66.13-2.29-.25-2.6.03s-.88,6.56-.69,7.53c.45,2.24,1.7,1.19,3.28,1.97l-2.62,1.63c1.41.38,2.05,2.39,3.78.55.09-.1-.02-3.45,1.47-1.85.67.72-1.2,2.76-1.33,3.67-.2,1.39,1.67,3.82-.31,3.56-.68-2.91-5.53-2.18-6.59-3.93-1.46-2.41,1.99-6.44-.65-8.54-2.07,3.26-2.44-1.35-3.06-1.86-.46-.38-1.48.07-2-.12-.82-.31-.7-1.22-1.19-1.56-.54-.38-1.36.67-2.31-2.37-1.7-.31-.64,1.3-1.16,2.46-.06.14-1.99,1.25-2.12,2.13l-.33-1.97c-1.03,1.19-2.94,1.6-2.55-.24.14-.66,2.1-1.56.91-2.4-4.59,2.59-9.33,4.76-14.63,5.74-16.06,2.97-36.24-.56-51.54,3.66-.95.26-6.08,1.88-4.46,3.74.85.98,2.58-3.07,3.94-1.96.38.31-1.53,1.28-1.32,2.28,1.67,1.49,3.37.4,4.27,2.96,1.9-1.32.01-1.44-.32-2.3-.31-.8.17-1.3.97-.97,2.45,1,1.82,5.42,6.01,5.7,1.02.07,2.17-.66,3.11-.49.51.1.33,1.38.75,1.38,1.12-.02,1.75-1.55,2.61-1.34,1.13.27.22,2.38,1.96,2.68,4.23.73,2.64-2.63,5.92-2.7,2.15-.05.03,3.48,1.98,2.65.85-.36,2.92-3.09,4.27-3.61-1.09-1.73-2.24-.28-3.59-.32-1.62-.05,2.47-4.98,5.57-1.33l-.66-2.29c2.2-1.74,1.86,4.27,3.11,4.95,3.04,1.63,3.74-2.43,5.41-1.33.68,8.25,6.55,1.9,7.25,2.62,1.24,1.27-1.37,2.17-1.31,2.29.63,1.32,2.39-.06,2.98.95.46.78.12,2.43.34,2.64.28.26,1.7-.24,2.43.17.67.38,2.45,3.43,1.47,4.46.36.38,3.57-1.25,1.89-2.88-3.63-3.5-.26-1.69,1.12-1.9.52-.08,1.75-3.16,3.56-2.45-.49,4.42,4.44,5.89,3.95.66-2.68.99-2.76-1.57-3.69-1.88s-2.25.12-3.17-.13c-1.05-.29-3.4-2.02-4.3-1.27-1.38,1.13,2.72,1.52,1.31,2.62-.17.13-2.67.13-3.14-.14-.54-.31-3.41-4.75-.47-3.14,1.9,1.04.95-.73,1.71-1.24.39-.26,4.67,2.56,4.54-2.04,4.32,1.17,8.3.61,6.57,6.57,1.23.62,2.79-1.3,2.96-1.3.78.02,1.73,3.71,2.64,3.93.82.2,2.43-1.43,2.26-2.23-.25-1.15-4.2-2.34-3.25-3.68,1.56.19,4.15.91,5.57.69.8-.13-.58-2.96,2.31-2,.39,1.27-1.45,1.84-1.26,2.86.04.24,1.75,2.29,2.18,2.79.29.34,2.5,2.9,3.01,2.23-.24-1.58,1.18-3-.33-3.94-1.11,2.81-3.05-.1-2.29-2.63,1.27-.36,2.59,1.55,3.59,1.31.93-.22.58-2.52,1.98-1.97,3.3,1.29-1.36,3.86-1.43,4.22-.05.28.95,5.38,1.18,5.56,2.33,1.86,2.69-1.83,3.2-2.23.32-.25,3.81-1.13,3.95-.99.43,2.06.88,4.77.01,6.77-.36.81-2.61.61-2.62,1.45,0,.12,1.51,1.63,1.63,1.63.88.02,2.38-4.5,4.27-3.93l.66,3.94h-2.63c.89,1.49.55,6.08-1.34,4.31-.3-.28-3.85-8.09-4.58-3.96-.04.22,1.66,3.62,1.96,3.97,1.18,1.38,2,.27,2.5.5.14.06.27,1.4,2.05,1.44.85.02,6.21-2.11,6.63-1.65-1.14,5.33-1.71,6.97,4.6,6.57.09,1.59.22,1.16-.99,1.28-.83.08-6.65-.39-6.9-.63-.38-.35,2.99-5.46-3.28-4.59,2.7,3.56,1.77,8.31,2.64,12.47,1.37.26-.15-2.66,1.63-1.96,3.43,1.34,1.1,3.24,1.05,4.23-.05.88.81,1.96.6,2.99h-3.94c2.07-3.65-2.61-2.1-2.58.99.01,1.35,1.68,2.65,1.27,4.26-.75.72-9.46-2.8-7.88,2.63,1.97.02,1.2-2.17,3.94-1.31.59,1.24-1.8,3.27-1.31,3.93.11.15,2.87.35,3.22,1.75.21.84-.63,1.9-.45,3.02s2.26,4.28,2.37,5.55c.09,1.14-3.54,4.39,2.08,2.84-1.13.8.37,4.83.77,5.15,1.02.82,2.81-1.64,3.18,3.71-2.05,1.39-1.46-3.61-4.6-1.63.57-3.7-.7-3.29-3.28-4.6-.73,3.02,1.44,1.53,1.89,2.01.35.38-.07,2.44.06,3.24l-1.96-1.96c1.43,5.34.05,3.05-1.14,4.07-.38.33-.57,2.24-1.33,2.84.06,2.43,6.36-.67,5.6,4.73-.38,2.69-1.54.5-2.87.36-2.51-.26-4.08,2.07-6.17-1.49,1.17,3.02-4.69,2.8-5.27,3.29-1.37,1.17,2.67,1.44,1.31,2.62-.25.22-1.5-.64-2.22-.51-.88.16-1.74,1.82-2.05,1.82-.59,0-.91-1.89-1-1.95-.64-.44-3.35,2.65-3.93.31-.4-1.62,1.98-2.36.98-3.61-1.75,1.28-3.68-.11-5.09.15-.81.15-1.83,1.31-3.07,1.55-19.16,3.79-38.84.18-58.2.94-.79.03-2.44-.5-2.29.65,2.81-.12,4.27,1.74,6.56,2.97-1.11,1.15-3.75-1.84-3.28.98,2.35-.15,4.17,1.05,4.26-1.96,1.12.43.3,1.86.38,1.91,1.73,1.03,8.59.48,11.12,2.69l-11.82.32c.82,3.31,5.34,1.18,6.55,1.95.86.54,1.83,3.13,3.8,3.56.93.2,3.96-1.99,5.42-.56,1.27,1.25-2.73,1.46-1.31,2.62.39.32,5.25-.35,6.09-.68s.08-1.54,1.13-1.28c.4.91-.88,3.71-.65,3.93.1.11,2.77.62,2.91.59,1.19-.25.9-2.42,1.04-2.56.22-.22,4.37,1.08,6.2.7,1.03-.21-1.57-2.46,3.96-2,4.78.39,7.17,4.41,12.82,1.96-2.48,3.59,2.2,3.17,2.63,1.62.07-.26-2.68-6.59-.01-4.25.18.16.42,1.95,1.61,2.68,1.04.64,2.71.48,2.92.69.34.33-.18,2.67,1.07,3.2,1.13-4.11,1.22-1.58,4.27-1.3-1.89,4.14,1.45,1.37,1.98,4.59,3.31-2.27.14-2.47.02-2.65-.99-1.4,1.21-1.27,1.22-1.57.05-2.25-1.81-3.64-1.9-5.64l.99,1.32.98-1.32,2.62,1.32c-.9-3.61,4.78-1.41,7.23-1.98.67,4.35-.5,4.54-4.62,4.3-2.06-2.54,1.05-1.36,1.33-1.67.37-.41.32-1.52-.94-1.27-1.17.24-2.99,3.8-2.99,4.23-.01,1.19,6.48,1.33,7.21.98.09-.04-1.01-1.78.65-1.96.03,5.58,3.69,3.08,1.98-.13-.56-1.05-2.33-.82-1.97-2.5,1.72.13,2.44.4,2.95-1.32,1.11,1.44,2.25,1.91,2.96,0l-1.31-.66c1.44.23,3.01-.74,4.3-.71,1.49.04,2.08,1.14,2.72,1.24.8.13,1.56-1.1,2.54-1.23.5-.07,5.06,2.6,5.53,3.02.7.64.49,1.74.83,2.1.56.59,2.96.31,4.11,1.49,1.24,1.29.31,3.43,1.64,3.93-.22-2.02,2.12-1.69,2.5-2.1s-.02-1.82.43-2.53c.66-1.03,2.89.18,2.34-1.93-1.36.08-2.94-.9-4.23-.72-.68.1-.27,2.66-1.68,2.68.24-2.94-3.69-2.41-3.92-2.65-.31-.32.59-4.18-1.34-4.91-.16-.31,2.56-.37,1.31-1.63-.23-.23-1.57.53-1.3-.65,2.25-.74,3.86-2.93,3.93-5.26l-1.64,1.31-2.3-2.62,4.61.65.32-1.32c.69,1.98,2.93.64,2.3,3.3.15.2,4.22-2,2.66,1.67-.84,1.98-.87.55-2.55-.18-.59-.26-1.74,0-2-.28-.46-.47.54-2.1-.73-1.88.1,3.47-.35,6.55-1.32,9.85,1.66.83,5.91-3.21,6.56-2.62.1.7.28,3.06.99,3.29,2.7.88,1.18-2.11,1.66-2.61.66-.68,4.42.14,4.57-.03,1.24-1.34-2.71-1.39-1.31-2.62.8-.7,2.74,1.23,3.63,1.31,1.22.11,2.6-1.01,3.84-.61,1.08.35.73,2.73,3.04,1.93,1.03-2.84.89-5.58,1.32-8.22.7-4.25,3.83.17,2.64,4.46-.16.57-2.98,1.52-2.64,4.72.15,1.41,1.8,2.21,2.56,3.39,1.08,1.68-.14,3.48,2.71,2.86-2.54-1.72,3.02-5.04,3.61-5.09,1.03-.09,2.24,2.16,3.62,1.8-1.3-3.55-5.18-2.13-3.94-7.22l.65,3.28c1.77.7,3.72-1.36,4.92-1.34.31,0,.41,1.29.66,1.36,2.13.63,1.85-1.82,2.64-2,.66-.15,2.07,1.81,3.59.66l-1.97-1.31c1.72-3.27-.11-2.19-1.32-3.57-.35-.39-1.41-2.23-1.3-2.33,1.44-1.34,3.29,3.26,5.02,2.86,1.18,1.68,2.79,2.17,3.19,4.37.01-2.3,3.91-1.6,4.27-1.98.07-.07.06-1.89,0-1.96-.18-.2-4.17,1.15-5.25-.01-.47-.51,2.15-3.24,2.35-3.3,2.01-.64,1.96,1.99,2.58,1.98.54,0,.83-1.73,1.06-1.89.13-.09,2.76,1.07,3.21.59.19-.2-.33-2.34.32-3.3,1.64-2.44,3.48.9,2.56,3.12-.33.79-1.27.94-1.8,1.55-1.09,1.26-.31,3.23-3.7,2.58-.28,1.17,1.12.43,1.31.66.52.62-6.2,6.47-7.01,7.11-4.81,3.76-11.36,7.53-16.95,9.98-1.1.48-4.44.89-4.82,1.43-.13.18-1.23,4.01-1.25,4.23-.24,2.41,3.18,6.51-2.16,6.81.2,1.27,2.01.77,2.5,2.41.57,1.88.76,5.05-1.85,4.16-.28,1.08,1.13.3,1.32,1.08.88,3.56-1.02,2.61-3.29,3.84,2.57,2.65,2.53-.14,2.68-.24,1.18-.8,1.7,1.76,3.21,2.21-3.63,1.11-1.75,4.08-1.96,4.27-.14.13-3.28.41-3.78.23-1.01-.37-1.32-2.17-1.8-2.17-.1,0-.72.83-1.44,1.02-1.44.37-2.57-.98-1.51,2.24l2.62-1.31c-.08.99-.49,6.27-.71,6.51-.16.18-3.61.51-4.71.88-23.32,7.86-66.14,7.16-92.15,8.38-20.74.97-41.62,2.68-62.46,2.66-7.66-.01-17.76-2.22-24.96-1.4-1.69.19-1.03,2.13-2.6,2.03-.77-.05-.07-1.69-.34-1.98-.46-.51-8.15,3.25-9.71.52-1.18-2.07,2.08-3.99-4.39-3.12-1.23.17-2.97.53-4.47.76-.69.11-1.32,1.16-1.47,1.17-.97.04-1.18-2.99-.99-3.93l-5.91,1.96,1.96-2.62h-7.88c-.38,1.12,1.78,3.56-.33,3.29-3.4-.44-2.3-3.43-3.8-4.42-.18-.12-3.92-1.46-4.14-1.49-1.87-.25-3.83,1.16-5.19,1.01-.67-.08-1.35-1.14-2.6-1.06-1.94.13-1.97,2.25-2.46,2.53-.88.51-3.5-.12-5.17.42-1.93.63-2.16,2.82-3.23,3.34-1.41.68-5.35-.2-5.27,2.61.03,1.08,1.86,1.92.56,3.84-1.02,1.5-2.91.5-2.86,3.07-2.79-1.57,2.8-4.57,1.64-5.91-.69-.79-2.96,2.81-4.42,3.17-1.12.27-1.81-.08-2.14-1.19,3.12-1.14,5.16-4.15,7.49-6.36.37-.35,1.4-.08,1.77-.62.62-.91.44-3.32.65-3.51.3-.27,1.71.24,2.43-.17,1.22-.7,4.28-5.64,5.41-6.76,3.28-3.26,6.79-5.69,11.5-6.24,6.98-.81,19.13-1.61,25.91-.95.54.05,1.99.79,1.35-.69-.4-.91-3.58-3.4-4.57-4.63-17.06-21.11-19.36-40.46-29.09-64.22-3.96-9.68-11.75-20.96-23.66-19.37s-18.45,7.26-32.85,5.57c-21.21-2.48-34.97-26.53-19.55-44,7.88-8.93,16.18-9.43,27.26-9.71,1.7-.04,4-1.77,4.94.65h-5.26c1.54,2.25,6.16,1.25,8.86,1.33,1.31.04,2.63.77,3.98.72,1.12-.04.37-1.64,3.92-1.42,1.07.07,8.76,1.67,9.14,1.94.56.4.55,1.84.38,2.03-1.32,1.39-7.46-6.09-6.57.67-1.87.27-3.01-1.38-4.59-1.98-.49,1.21,1.06,2.33,1.06,2.95.01,1.44-3.45,4.4-3.04,5.91.34,1.22,2.67.72,3.15,1.13.31.26.33,2.5,1.12,2.48.24,0,2.19-2.02,4.27-.64-1.23,5.22-.67,2.9,1.65,4.56,3.47,2.5.06,3.92.31,4.95.09.37,3.48,1.66,1.98,4.94,2.7-1.25,1.96.58,2.75,1.18.17.13.86-.51,1.07-.36.08.06.36,2.49,1.43,1.14.5-.63.19-10.67,0-12.16-.38-3.04-2.25-4.44-2.6-6.6-.44-2.69.24-6.05-.03-8.84.26-.36,1.69,1.66,1.96,1.31,1.13-1.44-1.17-1.84-1.3-2.62,19.29-2.65,18.65-25.29,22.53-40.23,8.19-31.58,27.39-59.53,58.95-71.15,2.67-.98,7.24-1.38,9.37-2.34.54-.25.43-1.31.82-1.3,1.26.04,1.58,1.64,2.95,1.33l-.65-1.96c1.15,0,2.32.1,3.46-.16,8.59-1.95,17.2-3.75,25.75-5.8.81,2.8,1.77.16,3.97-.03,1.23-.11,4.14.89,4.28.73.21-.25-.44-1.89.36-2.02,1.39-.23,10.44-1.01,10.81-.62.28.3-.48,2.33.32,2.63,1.21-.6,1.3-4.34,1.66-4.6.32-.23,6.68.51,7.86,0ZM161.65,18.44c-.99-1.06-5.75,3.39-2.94,3.94,1.77.35,3.97-2.84,2.94-3.94ZM152.57,35.61c.27-.32,2.08-.05,2.51-1.08l-4.26-5.57c-.24,1.34-4.18,4.58-4.17,4.91,0,.3,1.37,1.18,1.22,1.95-.17.85-3.12,1.21-2.63,2.98,1.22.65,3.25-1.87,3.94-1.31,1.37,1.13-1.42,1.36-1.31,1.64.27.64,1.1,1.33,1.65.34,1.19-2.14-1.3-7.01,2.29-7.24-.79,2.08-.25,4.99-.66,6.78-.11.46-2.38.38-.98,3.07,1.29,2.47,8.65,2.3,7.22-1.29-1.78-4.47-4.69-2.42-4.91-2.65-.09-.09-.13-2.25.11-2.53ZM164.38,42.01c-.21-.15-1.67-2.65-2.56-3.04l-2.12-4.76c-1.98,3.94-.06,3.09.53,5.06.32,1.07-.17,2.56.26,3.35.19.34,2.41.96,2.39,1.77,0,.28-1.21,1.04-1.23,1.98s2,2.61,1.32,4.27c-1.9-1.82-4.55-3.91-1.97-6.25-3.12-1.35-3.24,3.67-2.52,5.82.63,1.86,4.06.65,1.2,5.03-3.48-4.2-5.42.22-9.18-1.31.04,1.34.06,2.67-.29,3.99-.52,1.95-2.66,3.15-.38,3.9l1.32-1.31c-1.04,2.42,1.42,7.35,1.3,8.88-.2,2.51-1.92-.85-2.6-.99-.11,2.2-.5,2.98,1.97,2.63l-1.3,2.3,3.27,2.3c-1.05-.84-4.45.19-4.59.01-.3-.36.64-2.18-.65-1.98-.24,4.95.11,2.5,1.54,2.81,3.21.69-.32,3.4.43,4.41,2.34.75,4.02,2.31,6.44,3.11,2.03.67,3.03-.85,4.08,1.81.26.65,1.05,1.17-.35,1.66-1.08.38-1.46-2.7-2.94-.99.76,3.41,5.71,5.48,4.59,8.87,3.85.77,2.21-1.51,2.63-1.97.36-.39,8.59,2.35,10.51.66l-1.97,1.31c-.38,1.46,1.63,2.6,1.72,3.61.07.87-1.49,3.19-1.06,3.6.31.3,3.24-.37,2.64,2.64.59,0,.98.36,1.3-.39.6-1.44.6-4.53.67-6.18,2.07.04,2.12,3.09,4.59,2.62.15-.14-1.3-3.66-1.46-3.79-.46-.37-4.01-.44-4.45-2.47s3.78-1.44,4.46-.84c.23.2.45,2.33,1.43,3.51,1.99,2.41,6.9,3.84,6.12-.83-.23-1.37.66-1.29,1.11-.83.67.69.26,5.65,3.29,5.25-.49-4.01,0-3.47,2.96-5.25.33,2.29.27,3.18,2.95,3.28.76-1.87-3.7-5.89-2.62-7.22,1.38-1.7,3.11,4.98,3.37,5.16.51.36,1.8-.02,2.54.09-1.12-1.45-3.03-1.52-1.65-3.93.72,1.05,2.83,2.29,3.28,3.29.51,1.13.22,3.13.34,3.28.13.17,2.77-1.07,3.62,1.3l.32-1.96,3.28,1.31-3.28-4.6c3.86,1.25,2.89-.41,4.07-.87s2.52-.5,3.81-.44l-3.94,3.28c2.33-1.45,3.05,2.22,5.91,1.97l.98-2.62c2.38,1.89,3.8,4.05,3.63,7.22l.65-5.25c2.6-.69.7,3.79,1.32,4.6,2.02-.1,3.2-2.98,5.13-1.83.48.29.9,2.76,3.17,2.98,1.4.14,6.86-3.22,6.14-.18-.28,1.19-2.74.42-2.62,1.65,3.3,1.36,16.53-2.86,17.71-5.61,1.27-2.95-3.27-.28-2.6-2.92.38-.31,4.45.14,4.6-1.31-2.94.57-2.04-2.05-2.55-2.33-1.19-.67-3.26.36-3.36-.96.73.02,5.08.09,4.5-1.54-1.22-3.41-2.8-1.64-5.15-3.39l2.62-.99c-1.82-2.73-6.33-4.26-9.53-4.58-17.22-1.72-36.49,1.38-53.9.02-6.9-.54-16.22-5.47-17.35-12.88-.62-4.07.84-8.66.54-12.48-.09-1.14-.95-1.36-1.24-2.25l2.62-.98c-2.77-1.17-2.59-1.39-3.28-4.27l2.63.65-1.31-5.25,2.62,1.97c.18-.24-.65-5.52-.96-5.94-.14-.19-4.12-2.1-4.29-1.94-.11.1-1.03,2.61,0,2.97,5.11-1.57,2.22,4.26-.63,1.28-.68-.71-.93-2.8-1.64-2.87-.46-.05-2.54,1.42-2.88,1.18ZM180.53,38.98c-.41-.39-3.55-1.04-3.76-.83-.27.25.73,1.64.58,2.26-.06.27-3.41,1.97-1.9,3.64.45.49,5.4-1.56,6.56-1.32.16-.18-1.34-3.62-1.49-3.76ZM149.17,45.37c1.02-1.11-2.19-3.9-2.95-4.58-1.69,1.2-1.92,3.35-2.3,5.22l2.62.68-.65-2.62c1.06-.48,2.6,2.04,3.28,1.3ZM156.4,51.94c-.45-4.23-2.13-4.66-5.92-3.27.14,4.22,2.44,3.73,5.92,3.27ZM205.02,65.74c-1.65-6.48-11.49-.82-16.42-1.96l3.75,1.71c1.37-.21,3.98.06,5.06.85.74.55.03,1.87.76,2.07,4.98,1.37,3.51-2.8,4.23-3.33l2.62.66ZM144.57,67.72c-5.36.79-.92,7.43.65,3.6.44-1.07-2.69-1.02-.65-3.6ZM165.6,97.93c5.06.34-.17,1.88,2.3,3.94,3.75-2.5.37-8.74-2.3-3.94ZM266.13,105.82c3.09.02,3.48-4.27.97-5.25-1.83-.71-.67,4.51-.97,5.25ZM168.23,106.47c-1.43-2.53-.52-4.79-4.6-4.59-.3,1.08,1.16.39,1.33.97.84,2.92-2.47.41-1.99,2.96l5.26.65ZM120.17,106.57c-.71-.49-2.44-.39-1.87,1.21.5-.04,1,.03,1.25.53,2.34,4.51,4.44,16.4,3.99,21.44-.09,1.04-2.99,5.48,0,3.66l-.63,14.65c-2.05.79-2.28,2.85-.36,2.43,1.1-.24,2.74-8.75,2.88-10.27.71-7.37-.22-18.15-2.08-25.35-.28-1.09-2.81-8.07-3.18-8.32ZM167.57,111.08c-.21-.17,1.16-2.78-2.3-3.93-1.48.9-.62,2.94-1.29,3.95-.56.85-2.73.48-2.98,1.94,3.01,1.58,2.46-.49,3.07-.64,1.62-.39,4.95.57,6.17-.29.79-.55,1.53-5.1-.7-4.31v3.29c-.55-.09-1.8.14-1.98,0ZM176.1,118.31c-.27-.37-1.29,1.49-2.28,1.32-2.43-.44,2.13-2.63-1.2-4.13-.77-.35-7.39-.69-7.98-.52-.68.2-.13,1.43-.5,1.84-.46.52-1.99.16-2.49,1.17l3.28-.33c.48,4.19-3.36,3.1-5.9,5.26-.98-1.23,4.25-5.25.4-5.22-2.68.02-1.19,1.46-3.81-.9-3.24-2.92-2.92.52-1.66,1.38.49.33,3-.09,1.77,1.44-.06.08-1.27-.18-1.33.37-.08.77,1.05,3.1,1.01,4.24l2.31-1.98c-1.32,5.15-1.61,13.86,5.91,11.83.24.21-1.38,4.04-.57,5.17.27.37,1.7.23,2.38.95.47.49,1.62,3.76,2.47,4.39,2.25,1.07-.89-7.94,1.63-5.25.38.41-.13,3.46,1.48,4.17,1.83.81,2.99-.43,4.04-.28.39.06.41,2.36,1.7,1.36.24-.19.16-2.27,1.65-1.96,1.58.32.45,4.22,1.63,4.96.23.15,4.15.08,5.28.94-.84-1.82-2.56-2.95-4.6-2.63v-.64c1.82.28,1.36-1.26,1.31-2.64,3.37-.34,1.32.72,1.46,1.65.25,1.6,2.15.29,3.29.48,1.57.25,3.45,2.5,4.1,2.54,1.72.12,3.26-.7,4.94-.72v3.28c3.31.52-.54-4.6,1.31-5.25-.39,1.73,1.62,1.1,1.88,1.38.46.49-.12,2.31.1,2.56,1.11,1.21,2.73-.85,1.97-2.64,4.08.88,8.52,3.54,12.48,1.32v2.63c2.7-1.26,2.1.84,3.94,1.97-1.15-4.55.57-9.11,0-13.8-10.08-.86-27.27,3.07-35.53-3.58-.74-.6-3.74-4.25-4.05-5.14-.76-2.2-.52-4.14-.51-6.39l-1.96.65.64-5.26ZM119.89,123.29c-.69-.82-1.18-2.02-2.25-2.35-.12,1.85,1.49,7.08,3.92,4.27-.26-1.05-1.23-1.39-1.67-1.92ZM104.48,123.57c-1.65,1.05-2.86.07-4.59,0,2.81,1.42,1.88,5.51,2.04,5.8.36.66,11.49,4.67,10.44.77-2.88,1.81-5.28-1.04-6.9-3.28-.7-.41.53,3-1.64,1.64-1.07-.67,1.63-3.43.65-4.93ZM153.11,138.67c-1.01-3.39,1.51-6.94-3.94-6.56-.54,2.09,1.6.98,2.35,1.92.9,1.13-1.98,4.66,1.58,4.64ZM157.71,141.3c.48-2.26-2.17-1.06-2.53-2.36-.67-2.4,1.55-5.07-.74-6.18-1.02,1.93.12,4.13-.02,5.56-.11,1.16-1.57,1.93-1.31,3.3.37,1.91,3.21-1.04,4.6-.32ZM120.89,134.09c-.58-.41-4.49,1.8-3.26,3.26.13.15,3.27.78,3.95.35,1.12-.7-.53-3.5-.69-3.61ZM252.96,134.09c-.84-.55-2.24-.08-2.28,1.29-.02.87.77,1.41.88,2.29.22,1.73-1,2.9,1.07,4.98,3.39,3.4,6.26-2.6,2.19-2.46-.4.01-1.08.54-1.18.47-1.03-.69.16-6.01-.69-6.56ZM269.42,138.69c4.39-.45.18-4.98-.66-3.95-.19,3.64-2.98,8.12,1.96,9.85,0-2.36-2.03-3.72,1.32-3.29.09.93-.2,1.98-.01,2.86.15.7,1.96-.03,1.32,1.74-.85-.53-2.46.09-2.87-.02-.65-.19-.31-1.17-.42-1.28-1.72-1.59-1.99,3.41,3.29,1.96l-1.97,1.96c6.14.89,2.53-2.9,2.78-4.78.34-2.54,4.17-5.27-.8-7.69v3.94s-3.94-1.3-3.94-1.3ZM160.34,136.71c-.37-.4-1.65.4-1.96.98,2.07,1.47-.45,4.76,3.27,4.93-.41-.95-1.11-5.68-1.31-5.91ZM265.47,142.62c.63-3.55-1.25-4.79-4.59-4.59-.31,3.06,3.12,1.14,3.28,1.31.5.57-1.12,3.98,1.32,3.28ZM107.09,139.37c-.09-.14-3.51-1.38-3.25-.04,2.18-.44,1.46,4.14,1.97,4.61,2.87-1.48,2.57.84,1.97,3.28h2.63c-.65-.78-.06-1.99-.24-2.47-.3-.79-3.18-3.1-3.43-3.46-.47-.71.42-1.81.35-1.92ZM220.14,150.51c2.51.4,4.39-1.53,5.76-1.87,1.05-.26,2.42.58,2.82.28.51-.37,1.2-3.2,1.09-3.9-.55-3.33-7.55-7.37-10.98-6.33-.56,4.51,1.46,7.57,1.32,11.82ZM38.78,152.47c1.83-1.97-4.1-5.42-5.73-5.76-4.97-1.03-15.94,1.14-19.74-.63-2.08-.97-1.45-2.81-1.48-4.77-1.43,1.9-2.85,3.81-2.3,5.93.74,2.81,2.17,3.14,4.94,3.27l-.67-1.3h4.6c1.35,1.65-3.8,1.22-1.96,2.62,1.66,1.26,3.8-1.77,4.59-2.96l-3.28-.98h4.6s-.67,1.3-.67,1.3h3.62s-.33-1.3-.33-1.3h5.91c.54,2.35-2.57.99-3.94,1.32l1.32.98c-1.58-.02-1.08,1.86-1.39,2.19-.35.36-7.29-.51-5.19,1.42.14.13,2.7.44,3.77,1.11,1.39.88.75,2.05,3.11,2.22,3.05.22,1.03-3.19,2.65-3.31,1.91-.14.16,4.43.33,4.58,3.14.04,2.21-1.56,2.98-3.23,1.05-2.3,1.8-.64.31-4.65l3.93,1.97ZM41.24,150.03c.51,1.44-1.71,4.11.83,4.1.73-.52.98-7.2,1.04-8.89.13-3.9-5-1.02-1.7-.32-.55.84-2.29,1.89-2.62,2.64-.07.16,2.35,2.19,2.45,2.48ZM279.93,147.88c-1.68-1.72-4.06,6.18.93,5.18,3.32-.67-1.8-3.83-.93-5.18ZM122.23,165.62c.46.89-.08,4.33,1.65,5.25l.33-2.62c2.2.68.69,2.39.79,3.61.28,3.51,1.04,8.17.8,11.6s-2.38,7.55-2.62,10.38c-.07.81.78,1.77,1.37,2,1.49.6.85-1.49.99-2.27,1.3-7.55,2.06-13.96,1.33-21.73-.65-6.87-3.01-13.31-4.71-19.93-8.42-.7-17.94,1.54-25.53-2.71v3.94c2.94-.97,6.09-.08,8.84-.07,2.42.01,6.23-.59,8.57-.46,7,.4,7.58.03,9.3,6.89.09.37-.44.82-.43.87l-2.96-4.59-2.29,1.96c-1.24-1.93,3.13-2.78,1.96-3.94-.17-.16-4.47.39-4.59.99-.08.39,2.42,3.68,2.84,4.05.51.45,3.92.95,1.58,2.73-.15.11-3.55.47-1.81,2.08.16.15,1.49-.54,3.55,1.73.32.35,1.03.2,1.05.25ZM254.29,152.48c-.5-.37-1.71.35-1.86,1.05-.23,1.08,1.86,5.37.57,7.49.9-.37,2.57-4.42,2.59-4.93,0-.26-1.14-3.5-1.29-3.61ZM228.68,160.36c-.17-.16-.34-4.27-.67-4.61-.14-.14-3.78.9-3.95,1.01-.52.34-.53,1.38-.73,1.53-.11.09-1.81-.7-2.84-.61-4.88.45-10.39.73-15.15,1.36-1.18.15-6.24.75-6.23,1.64,2.41,2.02,2.76,4.33,4.26,6.9l.33-2.62c2.04.23,1.01,4.3,1.31,4.6,3.6.56.82-1.24,1.64-3.29,1.23-.01,3.98,4.98,4.93,3.93,1.04-1.14-3.28-2.56-.98-3.93,2.96,4.86,1.96.61,3.87.65,4.54.09,2.63,2.86,3.03,3.29,3.81.61.14-1.69,2.31-3.29,1.19-.48.97,1.23,1.3,1.33,2.53.74,1.69-2.05,2.31-2.64,1.27-1.2,1.38,2.62,2.62,1.31.24-.25-1.79-4.27.33-5.25.58.96.47,5.36.99,5.91.17.18,2.97-.79,1.31-2.62l2.62.65-.32-3.29c1.77-.23,1.49,2.5,1.64,2.64.12.11,1.68-1.12,2.65-.39,1.54,1.16-1.1,5.15,3.91,1.37-.95-2.37-3.82-2.33-5.25-4.61,1.21-1.3,5.13.88,5.72,1.83.51.82,1,4.1,2.31,4.96.1.07,2.41.23,2.47.12.44-.82-1.01-3.2,1.32-2.63l.33,4.59c1.67-3.41,1.51-1.32,4.27-.66-.77-1.09.2-5.08,0-5.25-.51-.45-3.33.54-2.64-3.95-2.19-.47-.98,1.51-1.4,2.87-.25.81-1,1.44-1.57.43-1.12-2.01.06-5.35-1.31-7.24.52,4.04-6.61.98-6.89,1.31v2.63c-2.98-.66.04-3.88-2.96-3.29l.32,1.97c-2.52-2.13-3.76,2.72-5.25,1.32ZM281.9,157.74c-.22-.24-3.69-.9-3.94-.66l.66,3.28c.64.1,4.27-1.54,3.28-2.62ZM277.2,160.47c-.38-.61-2.7-1.05-3.19.23-.07.19,2.54.25.66,2.95h2.62c-.12-.89.31-2.52-.09-3.17ZM174.79,161.02c-2.1-.72-.98,1.65-1.31,1.97-.53.5-2.97-1.44-3.96-.98-1.35.61-5.52,4.32-4.58,6.24-.75.44-.87-2.88-1.96-1.31-.16.23.19,1.48-.01,2.16-.26.86-2.61-.02.11,4.02.5.74,1.59,1.01,1.7,1.19,1.64,2.7-2.18,1.54-2.46,1.83-.16.17.18,1.57-.04,2.23-.72,2.14-2.32,5.39,1.35,6.31.19-1.38-.98-2.81-.58-4.15.87-2.94,2.19.11,2.36.22.86.57,2.16.58,2.82,1.64-4.86,2.52-2.64,1.44-.02,2.64.63.29,1.15,1.44,1.65,1.46.66.03,4.84-3.44,4.91-.24.02.77-.99,2.49-.62,3.01.23.31,3.24.44,3.96,1s.45,1.97.72,2.21c.49.45,2.22-.13,2.55.09.12.08-.9,1.4-.4,1.99.36.43,2.43.89,3.4,2.12.19.24-.39,1.32.62,1.79,1.37.64.69-1.32,1.4-2.01.26-.25,4.87-2.65,5.15-2.58.75.17.82,3.9,4.65,3.88.52,0,.61-1.76,1.29-1.91.74-.17,1.44,1.07,2.09,1.2.73.15,2-1.32,3.28-1.04,1.55.33,3.28,2.73,5.05,2.36,1.59-.33,1.03-3.31,3.89-2.52,1.42.39,1.19,4.31,2.75,3.96.87-.2-.52-1.95-.32-2.63,3.18-.09,5.77-.78,5.26,3.28,2.15.63.98-1.67,1.31-1.98.23-.22,4.68.92,6.28.71,1.13-.15,1.22-2.25,3.58-1.37.24.19-.7,1.49-.37,1.98.99,1.5,4.27-.55,3.65,1.95l-5.91.65c4.72.54,9.1-.53,13.8-.65l-.67,1.3c1.3-.04,4.7.45,5.26,1.65l-2.63,1.63c3.42-.27,5.4.11,4.6-3.93l1.3.32c-.12.77-1.62,1.78.34,1.67,3.73-.21,8-2.76,12.15-1.99l-3.28-1.63c1.24-1.91,3.94-.92,3.29-3.63l1.3.67c1.07-2.9-2.71-1.46-2.63-3.61.02-.56,2.5-.34,2.62-1.32.25-2.09-4.42-2.66-5.9-2.31l3.28-2.61c-2.13-.12-3.6-2.17-5.43-2.79-18.08-6.12-43.65.62-62.28-2.77-5.18-.94-9.68-3.85-11.49-8.88-.77-2.13.57-4.56-2.77-5.15-.79-.14-1.89.54-2.07.45-.82-.43-2.45-6.43-2.05-7.81ZM260.21,164.3c-5.03.02-.11,2.96-1.97,5.91,5.26-.91,2.02-2.53,1.97-5.91ZM158.37,169.56c.15-2.92-3.52-1.89-4.98-.67-1.06.88-1.49,5.56.38,5.93-.33-4.38-.24-5.87,4.6-5.26ZM121.5,168.98c-.48-.41-2.94.1-3.87-.07-.67,2.45,2.63.8,3.28,1.32.13.1-1.29,3.33.33,3.27,1.47-.06.58-4.23.26-4.51ZM109.62,173.66c-3.56-2.08-1.32,5.15,2.75,4.44.32-.31-2.53-4.31-2.75-4.44ZM120.92,184.02c1.89-1.87,2.89-5.34,2.62-7.88-1.45.1-1.1,2.4-1.34,2.6-.54.46-2.94-.93-3.91-.63,2.23,1.98,3.19,2.53,2.63,5.91ZM176.11,248.41c-.14-.47.16-1.36-.13-2.14-.62-1.67-3.64-3.12-.85-5.74.89,5.06,7.3,1.08,10.84,1.97.67,2.53-3.14.75-3.94,1.32,1.17.72,1.77,3.45,2.14,3.8.65.62,2.43-.84,1.8,2.1-3.05.28-3.4-3.55-5.91-3.94-.11,1.01,1.42,4.6,1.94,4.96.24.16,5.57.37,5.82.21.55-.36.62-2.74,3.4-1.89.1-1.08-1.44-.75-1.96-1.64-1.03-1.76,3.18-1.01,2.98,1.61.33,1.39,3.96,2.47,3.58,3.64-.81,2.53-4.38-2.53-5.57-2.29-.8.16-1.37,2.28-1,2.62.15.13,1.98-.17,2.82.13.92.33,1.51,1.58,2.09,1.64,1.28.13,2.49-1.92,4.28.21-1.43-5.65-.1-2.45,1.73-2.14.83.14,1.82-.64,3.03-.38,2.15.47,6.52,4.52,4.45,7.11,1.72-.08,2.96-1.02,4.59,0,.72-3.08-1.5-1.55-1.97-1.97-.57-.52,3.12-3.62-3.28-2.63-.43-2.96,3.75-.99,4.6-1.98.32-.37-1.82-1.51-1.31-2.62h2.62s0,3.28,0,3.28l4.59-1.31-.65,2.62,11.16-1.98-2.63-1.31c-.44-2.66,4.64-.04,2.34-3.32-1.05-1.49-4.16,1.01-4.31-3.58l-.66.99c-3.14-1.2.28-3.61,1.98-2.62.06.03-.49.78-.24,1.3,1.45,3.03,2.58.85,3.57.97s4.14,1.43,4.56,1.01c.1-.1-.29-3.4,1.3-1.97.16.14-.01,1.51,1.07,1.87,3.62,1.21,3.67-1.33,3.87-1.22.82.46.77,2.67,2.96,1.97.63,1.99-3.91,2.66-3.93,3.61,1.83,1.71,2.86,5.27,5.58,5.58.69.08.06-1.42.37-1.9.06-.09,1.6.79,1.9-.46.22-.95-1.31-1.94.35-2.88.33,1.21,2.5,2.33,2.78,2.8.37.63-.01,1.67.37,2.24,3.06,4.52,9.49.06,13.6-1.11.17,1.16,1.35,4.55,2.16,5.08.54.36,4.88,1.03,5.07.83.26-.26.09-1.81-.64-2.31-1.15-.79-4.36-.04-4.62-.31s.69-5.48-3.1-6.48c-.46-.12-7.12.67-7.44.87-1.44.88,1.22,3.52-.94,2.97s-1.14-1.39-1.43-1.94c-.53-1-3.11-2.97-.47-3.89,2.44-.85,1.87,1.12,3.16,1.29,3.24.43,4.84-1.36,5.96-1.36.86,0,1.65,1.16,2.66,1.28,2.2.28,4.63-.13,6.87.03v-3.29c-1.52-.14-1.86,1.48-3.56,1.33s-5.44-3.26-6.62-3.33c-.22-.01-.22,1.2-1.76,1.59-1,.25-8.73.85-9.44.76-.9-.12-3.08-2.01-4.27-2.54-.86-.38-2.02,1.4-.64-1.75-7.49-.91-15.1-1.24-22.6-2.05-10.14-1.08-25.58-1.91-34.5-6.9-5.28-2.95-9.2-8.37-9.78-14.56-.23-2.44,2.2-3.52-2.11-2.12l-.33-1.98-1.64,1.97-.67-5.25c-1.03-.22-.57,1.08-1.29,1.59-.31.22-1.12-.28-1.23-.15-.77.87-2.22,4.5-1.41,5.78l1.32-1.97c3.64,2.49-2.26,3.88-2.57,5.03-.34,1.24,1.51,3.73-.07,5.48,3.45-.79.81,3.39,3.95,4.94-3.37,1.02,1.33,3.75,1.84,6.05.62,2.78-.97,8.27,3.42,8.74,1.59,5.22,4.02.84,2.62-2.63-1.92.63-.31,2.87-2.62,2.63ZM240.66,227.87c-.35-.2-.4-1.29-1.71-1.88-1.5-.67-3.4-.62-5.01-.58-.53,2.32,2.55,1,4.11,1.34.41.09,3.14,2.36.48,2.27,1.64,2.68,3.95.56,6.57.98-.63-2.48-3.34-1.5-4.44-2.14ZM291.09,230.03c-.12-.13-1.17-.04-1.6-.67-.71-1.04-.03-3.58-2.32-3.28,1.07,1.42-.12,4.57.31,5.26.92,1.47,4.73-.07,3.62-1.3ZM256.27,229.36c-2.39-.33-1.35,1.95-1.92,2.83-.21.33-2.56.72-1.36,1.76.1.09,2.38-.27,2.63-.41,2.23-1.28-.38-2.08.65-4.18ZM280.36,248.67c-3.24-.98-5.68-.47-8.97-.91-.51,5.92,2.25,3.4,5.59,3.29,2.95-.1,5.92.07,8.86,0,.53-2.41-3.16-.95-4.79-1.33-.45-.1-.51-.98-.69-1.04ZM235.91,251.03c-.94-2.16-4.01-1.1-5.91-1.31,1.1,2.84-2.73,5.7,1.97,6.56.13-2.86.31-5.88,3.95-5.26ZM273.36,256.3c.36.16,1.19,0,1.91.36.92.47,4.1,3.49,4.66,2.92l-.66-2.62,6.57-.67-2.63-1.31c1.43-3.42,3.22,1.14,4.26,1.16.25,0,1.5-1.24,3.32-1.23.89,0,1.74,2.53,2.94,1.39.29-.28-3.48-5.06,3.29-4.92-3.14-1.23-7.72-2.73-6.56,2.29-2.67.59-5.74-1.12-8.22-.68-1.48.26-2.42,3.19-4.59,3.32l-.3-2.33c-1.06-.54-4.16-.72-4.5.67-.07.3.51,1.14.52,1.65-1.46-.65-4.06-1.24-4.46-1.47-.69-.4-.68-3.39-2.76-.82-.06,2.11,3.69,2.24,4.02,2.67,1.12,1.46.39,4.52-.08,6.19l3.29-3.1c.06-1.15,0-2.31-.01-3.47ZM238.54,252.35h-4.89c-1.04,4.02,6.32,5.69,4.89,0ZM320.67,253.01l-8.26,2.57-19.33,3c1.44,1.88,3.38.63,5.04.57,3.98-.15,2.28-.62,3.28-.88,4.26-1.1,5.23,1.98,8.75,1.95-1.43-5.96,1.25-.8,1.7-.68,1.7.47,9.03-3.68,8.81-6.54ZM221.45,260.23c2.55.42,5.07-.33,3.62-3.28-1.06-2.16-2.78-.62-3.86-.84-.64-.13-1.77-1.73-2.39-1.13-1.43,1.39,3.84,3.6,5.25,2.63.24,3.26-3.12-.05-2.62,2.62ZM247.99,258.68c-.52-.54-1.79-2.85-2.89-1.73-1.48,1.51,1.68,4.46,3.94,3.28.46-1.68-.61-1.09-1.05-1.55ZM239.85,258.27c-.42-.37-2.32.04-2.58,1.06s.92,2.9.61,4.19c1.75.14,1.08.06,1.28-1.01.12-.64.84-4.11.68-4.25ZM297.18,261.37c-.21-.11-.15-1.07-.45-1.06-2.73.02-7.41,2.33-10.89,1.25v1.97c1.2-.6,8.19.92,8.55.66.2-.15-1.1-2.06.34-2.62,1.25-.45.82,1.2,1.4,1.33,1.38.31,2.84-.44,4.17-.68-.08-1.63-2.46-.49-3.11-.83ZM319.35,260.24c-2.54-.65-5.54,1.98-6.9,2.32-2.45.6-7.64-.25-9.53,2.27,2.61.29,6.48-.66,8.77.65.59.34.26,1.53.76,1.33.54-.22,1.32-1.24.89-1.89-.16-.25-2.21.18-1.21-1.39.75-.04,2.9,1.03,3.28.66.17-.17-.33-4.65,2.3-.66l1.65-3.28ZM277.96,261.56c-1.95-1.68-7.85,3.3-7.87,4.27,0,.41,1.59,1.37,1.96.99.13-.14-.23-1.32.12-1.81.57-.78,3.72-1.96,4.78-2.16s1.17.46,1.01-1.29ZM302.68,265.78c-.77-.48-1.31-1.18-2.38-.93-.55,5.28,3.19,2.2,6.57,2.62.44-2.72-2.47-.62-3.56-.65-.43,0-.39-.89-.63-1.04ZM263.5,265.5c-2.33-.65-.89,2.24-1.3,2.63-.45.42-3.29-1.02-2.64,1.3l3.94.66v-4.59ZM287.82,269.43c.9-3.96-13.18-4.4-13.8-3.94-.55,2.27,3.2,1.1,4.85,1.38,2.64.45,7.3,1.19,4.34,3.86l2.62.67c-.29-1.91.07-2.26,1.98-1.98ZM294.97,269.36c.09-.08.61-2.19.6-2.37-.13-2.63-6.03-1.72-6.43.17s5,2.93,5.83,2.2Z"/>
          <path class="cls-1" d="M419.89,134.74c.16-.16,1.63-.19,2.03.38.98,1.41,1.24,6.88,1.26,8.82,3.98,1.13.85-4.09,1.31-4.6.84-.92,2.37,1.6,1.98,2.62,1.26.02-.09-2.07,1.96-.65-.76-7.92,2.31-7.94,8.86-7.92.74,0,1.16-.2.99.68-2.44,1.17-3.92,1.17-6.56.67-.64,2.34,2.21.89,2.63,1.31-1.47,8.75,3.77,4.72,8.25,4.58,1.2-.04,7.13-.09,7.77-.01.43.05.34,1.23.85,1.34,1.29.3,2.92-.3,4.36.13.9.27,1.41,1.53,2.23,1.74,1.14.3,3.12-.93,4.98-.54.12.03,1.84,1.54,1.83,1.66-.02.26-1.5,4.29-1.73,4.84-6.45,14.92-21.04,18.69-36.08,17.79-10.62-.64-25.53-5.92-35.11.38-.54.36-5.54,6.07-5.96,5.54-.36-2.03,1.28-3.52,1.79-5.1.42-1.3-.17-2.92.5-4.1.73-1.27,4.19-1.87,4.32-2.37.43-1.66-1.55-4.57-.13-6.45.72-.95,4.29.51,2.39-2.36-.38-.58-3.48-1.53-2.31-3.27.63-.94,3.52.1,4.19.02.34-.04.61-2.96,3.69-.03-.45-5.23.23-9.22,1.62-14.15.85-3.02.82-1.77,1.48-3.12.95-1.95.76-6.54,3.48-5.73-.4-1.59-1.51-.85-2.62-.65.32-2.24-.21-1.78-1.98-2.3,4.53-4.63,11.16-5.16,17.1-6.56,3.59-.85,6.72-2.27,10.81-2.34,2.41-.04,0,2.29-1.03,2.92-.33.2-4.01,1.67-4.24,1.69-1.14.1-2.71-1.01-3.48-.57-.43.25-1.96,4.29-2.17,4.42-.71.43-6.18.16-7.78,1.43-.63,2.24,1.71.27,1.97,1.64.48,2.54-3.36.54-3.94.98-.65,1.7,1.12,1.11,1.18,1.62.31,2.29-1.27,4.61-1.24,6.62.03,1.61,1.54,2.51,1.44,4.57-.09,1.71-1.4,2.11-1.39,3.61l7.87-3.93c.47,1.41,2.06,2.64,1.82,4.32-.14.95-2.48.41-1.81,2.24h2.62c.32-1.69-.42-11.41,0-11.82ZM441.58,155.75l5.24-.32c-1.45-2.38-3.83-1.75-5.24.32Z"/>
          <path class="cls-1" d="M320.61,149.95c.23.4-.71,2.38-.66,3.52.06,1.46,1.4,3.14,1.17,5.36-.11,1.08-1.15,1.79-1.05,2.43.12.72,2.82,2.28,1.92,4.35,1.11.14.62-1.59,1.71-1.93.69-.22,4.57.83,4.86,1.61.21.57-.89.12-1.12.47-.64,1.01-.03,3.76-2.17,5.1,1.5.19,3.61-1.41,4.88-1.33.35.02,3.45,4.71,3.01-1.96h1.97s0,3.29,0,3.29c2.97,1.05,3.25-1.98,5.58-1.31,2.14.62-1.54,2.85.67,3.27,1.51.29,1.71-3.79,3.3-1.33,1.84,2.85-3.05,3.11-1.66,5.94.08.16,3.31-.03,3.48-.08,1.01-.32,1.78-2.95,2.41-2.55-.11,2.19,6.25,2.78,6.58,4.27.42,1.89-3.04.72-2.62,2.61.12.55,2,1.58,2.33,2.32.48,1.08-.46.69.71,2.79,1.52,2.73-2.44,1.77-3.94,2.47-1.71.79.9,3.67,2.21,2.62.15-.12-.65-3.05,1.64-1.96.17.08,2.56,2.44,2.65,2.6.13.2-.86,4.43-1.01,4.62-.93,1.19-2.74-3.59-3.4-3.78-.23-.06-4.49-.19-4.72-.12-1.15.32-1.21,1.56-1.07,2.58,5.94-2.26,4.06.47,5.91,3.94-3.77-.41-6.97-.78-10.51.66.81-3.65-3.47-.95-5.91-2.63v1.97c-1.58-.33-3.46-.17-4.93-.35-.31-.04-2.94-1.84-1.99.35.23.54,1.4.78,1,1.97-1.9.11-3.81.41-3.95-1.97-1.37.75-2.05,2.42-3.93,1.98.05-1.21.12-2.52-.99-3.28-3.08,3.47-4.79-.49-6.96-1.6-1.19-.61-8.31-2.93-8.48-3.35-.78-1.94,1.49-1.52,1.31-1.96-.59-1.07-4.99-2.65-5.23-3.04s.52-1.17.54-1.57-1.08-.22-1.21-.76c-.85-3.47,1.09-7.84-1-10.73-.14,5.21-1.71,3.44-5.57,2.61-.22-1.99,1.38-3.66,1.35-5.6-.03-1.73-1.4-2.06-1.36-3.58,1.18-.02,4.24-.36,4.6,1.01.32,1.23-.95,1.95-1.18,2.76-.72,2.58,2.28,2.64,3.14.5.48-1.2-1.27-.87-1.35-1.39-.24-1.5,1.19-4.12.03-6.16-.79-.4-.81,2.84-1.96,1.31-.33-.44.51-2.47.32-3.37-.24-1.12-2.16-2.2-1.63-3.85,1.39.01,2.32.77,3.76.19,2.31-.93-.21-3.5,2.8-3.47-.15,1.83-1.54,3.9,1.31,3.94-.35-1.59,1-3.52,1.96-4.91,2.05-2.97,5.39-5.46,7.61-8.28.4-.03,4.68,2.53,4.82,2.77ZM320,165.62c-.12-.1-1.26-.25-1.31.33-.06.66,2.46,5.13,2.95,5.6.97.93,2.43.37,2.9.75s-.75,2.42,1.38,1.86c.06-3.13-3.08-4.75-4.98-6.54-.68-.64-.85-1.93-.94-2Z"/>
          <path class="cls-1" d="M321.99,103.85c-.06-.04.16-1.27-.4-1.36-3.38-.57-5.96,3.43-.93,2.68.64,1.84-3.25,3.19-3.33,3.66-.31,1.95,1.84,2.47,2.37,3.59.34.72-.34,1.63-.22,1.83,1.17,1.99,5.48.52,5.78.77.22.18-.56,1.31-.31,1.99,1.14,3.13,3.91-1.69,5.83-1.38.41.07.99,2.3,2.36,2.03l-1.97.65v1.97c1.84.26,4.29-.37,3.29-2.62,3.97-.51,2.09,3.27,2.72,5.49.47,1.64,2.24.18,2.49.42.74.7,1.85,6.35,2.33,7.24.83,1.53,2.22-.69,1-1.98,3.16-1.13,4.87,4.94,5.27,5.25.18.14,3.1-1.72,4.3-.02.5.71-.5,2.2-.28,3.47.28,1.65,3.78,3.74,1.88,4.77-.57.31-1.48-.42-2.16-.23-1.03.29-1.43,1.81-2.65,1.74-1.96-.11-6-1.65-8.68-1.85-3.62-.26-9.49-.2-13.06.06-1.02.07-6.06.41-6.28.64-.31.32.38,1.79-.36,1.92-1.02-.13-1.87-4.94-3.61-3.28-.81.78,3.04,3.17.33,3.28-.5-2.4-4.78-3.55-5.24-4.56-.25-.55.4-2.93-.36-3.99-.28-.2-3.48,1.18-3.93.67-.16-.18.21-1.52-.02-2.13-.25-.67-3.45-5.06-3.79-6.22-.37-1.28.14-4.41-.2-4.76-.26-.27-1.71.13-1.91-.04-.23-.2,1.98-4.56-1.31-5.25l-.98,2.62c-5.56-5.31.74-3.02.97-3.28.26-.3-.63-1.66-.59-2.33.04-.74.89-1.71,1.22-2.67.3-.86-.44-3.72,1.95-2.19.54.35.02,3.33,2.02,2.59-1.07-3.97,1.52-5.34,2.76-8.08.7-1.56.68-3.68,1.55-5.03.77-1.19,2.36-1.44,2.97-2.29,1.89-2.6-.35-4.68,6.16-3.61,4.49.74,2.77,3.04,3.15,5.36.12.76,1.31,1.43,1.21,2.78-.06.77-.99,1.95-1.35,1.66Z"/>
          <path class="cls-1" d="M310.15,29.6c-.53,2.29,2.74,4.28-.01,5.59-1.94.92-7.01-1.16-9.6-1.55-6.86-1.03-13.88-1.6-20.8-2.19-1.38-.53-1.99-1.66-1.77-3.15,8.39.46,16.88.71,25.26,1.34,1.12.08,2.03,1.1,2.78,1.17.94.09,2.56-1.88,4.15-1.2Z"/>
          <path class="cls-1" d="M276.65,19.74c.25-1.2,1.29-1.22,2.27-1.33,5.88-.67,18.11,1.03,24.03,2.3,1.86.4,8.59,1.52,7.86,3.96s-8.45-1.2-10.25-1.56c-7.96-1.61-16.08-1.56-23.91-3.37Z"/>
          <path class="cls-1" d="M306.87,15.14c-1.04,1-4.42-1.6-5.64-1.91-4.82-1.18-11.95-2.01-17.03-2.68-1.86-.25-3.81.22-5.78-.16-2.41-.47-3.56-3.02-.14-3.01,5.33,0,19.11,1.74,24,3.5.86.31,6.27,2.66,4.6,4.27Z"/>
          <path class="cls-1" d="M291.1,117.66l-1.31.98,1.31,2.3c-4.95-.88-4.7,3-.41,1.98.53-.13.23-1.94,1.39-1.32,1.55.82,0,3.73,3.3,0h.97s.65,1.96.65,1.96c-1.18-3.39,2.82-1.2,3.18-.57.12.22-.13,5.02-1.85,3.85-.14-.09-.65-2.63-1.98-2.62v2.63c-3.88-1.79-2.72,1.34-3.37,1.88-.52.44-2.19-.27-3.08.22-.41.23-.45,1.86-1.43,1.84.76-3.53-1.69-2.67-2.48-3.48-.29-.3-.02-1.25-.32-1.57-.56-.63-4.2-1.03-3.78-3.48h4.59s-1.97-2.63-1.97-2.63c2.93.61,4.09-1.79,6.57-1.97Z"/>
          <path class="cls-1" d="M450.76,119.63c.39.37,3.08,9.43,3.16,10.34.08.99-.3,2.73-.86,3.49-.37.5-10.76.33-12.46,1.28-1.03-.62-1.24-1.51.05-1.87,1.59-.44,9.8.18,10.74-.79,1.11-3.86-2.33-8.06-1.95-11.46.1-.92.4-1.87,1.33-.99Z"/>
          <path class="cls-1" d="M264.81,26.98c.23,3.18-5.41-.36-7.15.73-1,.63.45,4.21-1.07,4.52-1.4.28-1.94-2.53-2.62-2.61-1.6-.2.96,4.2-2.3,2.62,1.26-3.16-4.47-3.58-.32-5.26,3.45-1.39,8.8,1.75,7.55-3.94,1.47.17-.04,2.74,1.27,3.65.99.69,3.37.13,4.64.29Z"/>
          <path class="cls-1" d="M324.58,104.53c.1.09-.07,1.28.41,1.9.4.53,1.44.59,1.6,1.17.34,1.28-.23,3.35-.01,4.79-3.32-.12-6.61-.96-5.32-4.93.34-1.05.93-.92,1.14-1.25.27-.43.6-3.16,2.19-1.69Z"/>
          <path class="cls-1" d="M243.79.04l-3.61,3.92-1.64-1.29v3.29c-1.26-2.63-5.05-1.1-5.26-1.32-1.7-1.78,5.22-4.2,6.39-4.44,1.36-.28,2.74-.17,4.11-.15Z"/>
          <path class="cls-1" d="M358.12,206.36c.51,2.23-1.95.97-3.48,1.45-3.29,1.02.18,3.14-.47,3.8s-2.02-1.35-2.95-1.33c-.32,0-3.68,2.47-3.6.35.01-.38,5.08-4.66,5.65-4.77,1.07-.2,3.38,1,4.85.5Z"/>
          <path class="cls-1" d="M362.05,192.56c.17.16.08,1.64,1.06,1.93,1.23.35,5.33-2.23,4.86.69-3.03-.05-3.69-.73-3.29,2.63-2.82-2.17-3.04,1.31-3.61,1.3-.38,0-.65-1.15-1-1.46-.62-.55-2.09-.61-1.29-1.8.04-.06.95.11,1.33-.44.45-.66.5-4.16,1.94-2.85Z"/>
          <path class="cls-1" d="M446.1,128.75c-1.84.46-5.63.08-4.93-2.57,1.11-4.2,6.82-1,4.93,2.57Z"/>
          <path class="cls-1" d="M264.82,112.4c-2.28,4.27,1.38,2.69,3.27,5.58-4.38,4.62-8.55-3.97-3.27-5.58Z"/>
          <path class="cls-1" d="M222.76,2.01c.21,1.29-1.63.35-1.98.65-.29.25,2.81,5.2-3.93,3.93.08-3.48,2.6-4.96,5.91-4.59Z"/>
          <path class="cls-1" d="M298.98,136.05c.38,3.82-3.12,2.5-2.63,5.26-.73-.21-3.27-1.84-3.27-2.3,0-.33,5.07-2.62,5.9-2.95Z"/>
          <path class="cls-1" d="M278.61,107.79v5.26c-2.3,1.87-2.89-5-2.62-5.26.17-.17,1.98.1,2.62,0Z"/>
          <path class="cls-1" d="M228.68,4.63c-.16-.17.24-1.64-.04-1.9-.64-.61-4.24.84-4.56-.72,2.13.55,4.94-1.12,6.82-.61,2.4.65-1.05,4.45-2.22,3.24Z"/>
          <path class="cls-1" d="M234.59,28.94c-3.19-.29-4.94,2.31-5.26-1.96,2.24-.98,4.11-.21,5.26,1.96Z"/>
          <path class="cls-1" d="M299.49,207.78c.09.13-.42,2.42.15,3.17-4.61-.45-2.45-1.08-3.28-4.59.31-.31,3.02,1.25,3.14,1.42Z"/>
          <path class="cls-1" d="M322.64,216.21c-.26.25-4.84.1-3.93-2.29.97-2.54,5.26,1,3.93,2.29Z"/>
          <path class="cls-1" d="M270.07,217.53l-1.31.98c.25.61,6.11,1.9,2.95,2.95-1.73.57-7.48-5.06-1.64-3.93Z"/>
          <path class="cls-1" d="M294.38,142.63c2.29,2.67-5.82,0-5.25-2.64.86-.35,5.06,2.41,5.25,2.64Z"/>
          <path class="cls-1" d="M331.18,209.64c2.48.38,2.11-.39,1.98-2.63,3.54,1.93-.47,7.71-1.98,2.63Z"/>
          <path class="cls-1" d="M153.77,58.51c.38.5,1.19,6.65-1.3,6.57-.5-.16-.51-8.96,1.3-6.57Z"/>
          <path class="cls-1" d="M212.25,247.75l1.93-4.3c1.1.5,4.48-.47,4.63-.3.31.35.04,1.85-.65,2.3-.84.55-4.18.9-5.92,2.29-.1.08.18,1-.07,1.21-.63.52-5.79-1.61-4.53-2.52.33-.24,2.17.33,2.6-.06.48-.44-1.02-2.64,2-1.9-.91,1.41-2.3,2.33,0,3.28Z"/>
        </g>
        <g>
          <path class="cls-1" d="M61.12,293.75c.2.18,4.23-.03,5.25.66.76-3.4-1.58-.9-2.62-2.62,4.37-2.21,4.31,1.58,5.03,1.98,1.16.66,4.09.54,5.63.81.66.12,1.33,1.14,2.15,1.14,1.02,0,1.9-1.67,3.2-1.29,1.18.35,1.17,2.82,2.71,2.61l2.3-2.63c-1.53-.65-4.78.64-4.59-1.98,2.12.49,11.95,3.24,13.07,1.9.59-.7-.95-3.15,1.38-2.56v2.63c1.41.21,2.1-1.22,3.5-1.15s3.18,1.61,4.05,1.56c.45-.03,1.41-.95,2.65-1.11,2.85-.36,1.93,1.38,3.24,1.4,2.32.04,10.12-1.37,11.08-1.23,1.49.21,4.3,3.76,3.75-1.43,1.41,1.09,3.13,2.54,5.06,2.46.88-.04,1.56-.86,2.53-1.12.87-.23,2.49.23,2.89-.09s-.71-2.63,1.34-1.91c-.72,4.25,1.53,1.89,2.53,2.72.37.31.05,2.76,1.73,2.54l-.32-1.97,2.62.65-1.31-1.96c1.73-.29,3.35,1.23,4.93,1.23,1.39,0,3.01-1.35,3.91-1.28.42.03-.8.75,2.73.78s4.31-.21,7.92.39c1.6.27,3.52-1.49,5.46.84-.42-2.89,3.52.53,3.89-1.61.11-.66-1.86-2.76.72-2.32-.79,3.48,3.12,1.44,5.46,1.99.53.12.16,1.17,1.39,1.35,2.22.33,3.99.46,3.98-2.02,3.45,5.06,2.25,1.56,4.05.78,2.32-1.01,7.37-1.3,4.17,1.84,3.85.79,2.21-1.52,2.63-1.96.66-.7,2.55,1.08,2.95,1.08.89,0,4.01-2.3,6.24-.1l-3.28,1.64c7.01,1.97,4.15-2.77,4.6-3.28.58-.65,1.96,1.3,2.95,1.33.44.01-.03-1.24,1.27-1.4,3.21-.39,7.28,1.48,9.96,1.32,1.4-.08,1.79-1.78,3.23-1.93,2.29-.24,7.07,1.89,9.33,1.81.98-.03,1.56-1.05,2.52-1.13,2.59-.21,6.7-.69,9.19-.7,2.13-.01,3.8,2.2,4.57,2,.58-.15.75-1.61,1.12-1.83,2.15-1.29,7.8,1.75,8.41,1.17.2-.19-.56-2.69.98-1.97,1.73.82-.77,3.03,1.33,2.63,1.68-.32,1.95-1.83,2.96-2.3,1.28-.59,5.73-.32,7.41-.09,1.06.14,2.7,1.98,4.28.88.34-.24-.37-1.46,1.11-1.14.61.13.12,1.28.73,1.37,1.83.29,6.94-1.9,8.36-1.86s3.77,1.7,4.75,1.8c.29.03.23-1.2.72-1.32,1.37-.33,7.82.97,9.7.73.46-.06.35-1.31.67-1.3,13.72.69,27.32-.86,40.78-.72,1.8.02,4.46,1.22,6.06,1.14,1.95-.11,2.68-1.62,6.27-.43.7.23.31,1.78,2.12,1.29.52-.14.79-1.97,1.32-1.98.09,0,.75.94,1.5,1.12,1.64.41,3.43.36,5.07.85,1.23-.99-1.23-.42-.97-.99.74-1.67,2.85-.2,4.24-.3,1.9-.14,3.73-1.14,5.81-.67.56.12.48,1.64,2.16,1.75,2.37.16,4.99-1.78,5.86-1.76.29,0,4.94.76,5.61.9,1.26.26,2.76,1.72,2.93,1.71.16,0,1.18-1.07.98-1.3s-1.59.51-1.31-.66c2.15-.17,4.04.67,6.2.68,5.9.03,12.67-.92,18.46-.61,2.4.13,4.41,3.19,4.7,3.25,1.38.3,4.3-1.32,6.11-.69-.32,2.95-1.78,2.19-3.28,3.93,1.05-.35,2.32-.15,3.35-.39s1.66-1.56,2.57-1.25c.51.36,1.29,7.22,1.34,8.52.15,3.79-.68,7.17-.71,10.51-.11,11.93.75,24.41.03,36.17-.12,2.01-.34,6.89-1.98,7.23,0,.62,1.15,0,1.34.75.52,2.18.83,8.1.61,10.38-.96,10.01-1.79,19.42-1.96,29.58-.05,3.14.85,13.72.4,15.49-.22.88-1.78,2.69-2.1,3.96-4.55-.39-9.24,1.07-13.69,1.3-4.69.25-16.12.67-20.25-.18-.89-.18-7.88-4.36-9.24-5.21-9.84-6.15-19.44-13.09-29.13-19.5-2.67-1.77-6.21-2.11-8.72-3.77-1.01-.67-1.21-1.96-1.48-2.11-.77-.45-3.02.03-4.51-.42-1.86-.57-3.66-3.57-5.94-4.57-1.37-.6-6.9-1.42-7.12-1.76-.56-.84,1.56-3.78-1.17-4.47-2.01-.5-2.7,1.22-3.81,1.24-1.6.03-2.53-2.89-4.61-3.29-2.46-.47-4.79.75-7.21.7-1.87-.03-7.59-.43-9.19-.73-1.8-.34-2.51-2.45-4.24-2.98-2.43-.75-5.91-.27-8.63-1.25-1.4-.51-1.28-1.56-2.07-1.87-2.99-1.18-5.16,1.29-8.16,1.48-4.92.31-8.36.92-13.05,1.34-7.22.66-14.44-1.28-21.67-.64-3.59.32-3.2,1.68-4.42,2.17-1.85.73-10.42.76-12.63.41-2.08-.33-3.13-1.72-5.92-1.96-10.1-.88-23.53,4.19-34.2,3.31-3.75-.31-8.38-2.02-12.39-1.92-7.06.19-12.79,3.79-20.45,3.87-3.9.04-16.89-.59-19.42,1.66-.87.77-.44,2.17-.97,2.96-1.41,2.11-7.25.09-9.53.66v-5.25s-23.43,44.07-23.43,44.07c-7.02,1.65-14.6-.43-21.65,1.19-4-1.53-9.98.33-13.59-.73-1.46-.43-2.09-2.4-3.16-3.41-.57-.55-2.01-.55-2.63-1.31-.83-1.01-.46-2.89-.59-3.04-.18-.21-1.37.68-2,.34-1.1-.6-3.06-4.35-3.9-5.27-1.67-1.85-4.06-3.21-5.56-5.61-.66-1.06-.39-2.6-1.39-3.87-1.09-1.38-4.53-2.42-5.6-4.26s-.49-4.7-1.42-6.47c-.62-1.18-2.19-1.39-2.38-2.17-.37-1.48,1.55-7.89,1.7-9.98.45-6.31-.96-8.89,3.01-15.39,1.04-1.7,3.98-3.36,4.69-5.17.52-1.33.17-2.67.69-3.9.32-.74,1.7-1.44,2.21-2.39,2.01-3.75-1.15-5.4-1.74-8.61-.47-2.59.39-6.12-.27-8.27-.35-1.14-3.57-2.82-4.76-4.44-2.8-3.8-4.08-11.3-2.71-15.76.16-.52,4.68-6.02,5.28-6.55,1.26-1.1,3.68-1.71,4.74-2.81,2.81-2.88,2.83-4.33,6.91-7.08.4-.27,1.12-2.68,1.82-.88,1.51,3.88.86,6.82,1.32,10.47.12.96.5,2.03,1.31.97-.53-5.37-1.82-10.53,1.41-15.34,1.51-2.25,6.26-1.87,6.41-.77.04.29-.97,1.98-.59,2.31ZM262.18,295.06c.9-.83,7.4,4.01,7.22.99-.04-.62-7.61-4.45-7.22-.99ZM296.36,300.32l5.24-1.64c-2-2.48-3.03-4.13-6.55-4.27-.45,2.42,1.98.43,3.04,2.27,1.76,3.06-2.11,1.44-1.72,3.64ZM352.21,303.61c-1.96.54-5.43-.24-4.59,2.63l2.28-1.32c.98.25.7,2.48,1.4,2.67.5.14,7.84.24,8.14-.05.39-.38-.13-2.27-.98-2.61-1.6,1.4-4.22,1.09-6.24,1.95v-3.28ZM305.55,310.18h-4.6s0,3.28,0,3.28l3.28-.66-2.62-1.96c1.21.47,4.43,1.81,3.93-.65ZM277.31,325.29c4.92-.89,5-.75,3.27-5.25-1.68.31-.49,1.89-.97,2.6-.63.94-2.67.9-2.3,2.66ZM362.72,358.14c-.33-7.44.48-15.27,0-22.66-.09-1.32-.51-6.38-.75-7.13-.61-1.96-3.14-.43-4.8-.4-20.44.33-41.33-.12-61.76,0-19.43.12-38.31,1-57.73,2.28-.64.04-1.04-.59-1.75.64,2.66,4.61,2.78,1.88,4.27,1.86.56,0,1.18,1.48,2.28,1.1.05-4.78,5.09-2.26,7.75-1.5,1,.29,2.19.01,2.98.3,1.21.44.93,2.16,2.73,2.52,4.23.84,7.18-1.96,9.88-1.91,1.39.03,3.67,1.66,5.9,1.91,13.88,1.54,29.1-.97,42.56,2.12,2,.46,5.08,2.33,7.22,3.3,5.56,2.51,10.07,2.92,16.45,5.89,2.63,1.23,6.36,1.21,9.01,2.16,4.09,1.47,5.59,4.58,10.85,4.3.83-.04,2.22-.79,2.29-.69.21.3-.13,1.95.01,2.62l1.65-.66.97,3.95ZM229.99,333.83c1.15-5.89-.78-3.23-4.25-3.25-3.87-.02-7.63-.71-11.52-.04,1.45,2.27,4.01,2.98,6.57,2.62l.32-1.96c.98.96,1.15,4.4,2.66,1.97.28-.45-.57-1.8-.35-1.97,1.9-1.53,2.1,1.92,2.31,1.97,2.67.71,1.23-2.34,1.96-1.97l2.3,2.63ZM201.73,330.55c-1.94.3-3.32.8-5.25,0v2.63c-1.96.3-1.19-1.75-2.94-2.02-1.66-.25-6.29-.06-8.1.2-1.03.15-1.88-.01-.79,1.15.74.79,3.23.02,4.11.17,1.38.24,2.5,1.03,4.11,1.17,2.63.23,4.76-.93,7.25-.25l1.61-3.05ZM234.6,330.55c-.18-.18-2.57.11-3.29,0v3.29c1.89.34,4.79-1.73,3.29-3.28ZM178.08,331.2h-9.2c1.1,2.54,3.75.72,5.59.65,1.41-.05,4.08,1.92,3.61-.65ZM95.94,356.82l-.33-7.21c-1.52,1.49-3.17,6.98.33,7.21ZM395.57,363.4l-3.28-5.25c-.37,2.88-.03,5.06,3.28,5.25ZM96.6,384.42l-.66-3.29-3.28.67c-.32.29,1.33,6.67,1.99,7.22,1.39,1.15,2.11-3.14,1.96-3.28-.17-.15-2.51.42-2.63-1.97l2.62.65ZM95.29,399.54c-.14-.14-1.43.08-1.97,0l-.66,5.92c2.3.66,2.87-5.67,2.62-5.91Z"/>
          <path class="cls-1" d="M401.49,289.15c-3.78-.08-5.69,1.29-5.91-3.28,2.3-.27,5.65.43,5.91,3.28Z"/>
        </g>
      </g>
    </g>
  </g>
</svg>